# Blender 5.2.2 LTS
# www.blender.org
mtllib BRAKE1.mtl
o taillightR_a_LODS0_lights_smooth_CH1_001
v -0.435562 0.029649 -1.961706
v -0.428857 0.017585 -1.968682
v -0.433057 0.026040 -1.964040
v -0.464050 0.008651 -1.957363
v -0.423655 0.005893 -1.974610
v -0.438608 0.032320 -1.959419
v -0.442245 0.034303 -1.957084
v -0.452467 0.037213 -1.951381
v -0.446544 0.035785 -1.954600
v -0.461360 0.038845 -1.946685
v -0.498369 0.010844 -1.941274
v -0.494617 0.042564 -1.929465
v -0.473550 0.040217 -1.940069
v -0.533765 0.013279 -1.924238
v -0.529702 0.046516 -1.912048
v -0.567717 0.015791 -1.907311
v -0.564611 0.050720 -1.894652
v -0.593537 0.018392 -1.893461
v -0.581341 0.053211 -1.885995
v -0.597562 0.056615 -1.876773
v -0.616147 0.022116 -1.879944
v -0.605301 0.058949 -1.871757
v -0.628627 0.025044 -1.871559
v -0.611230 0.061484 -1.867421
v -0.638882 0.027860 -1.864181
v 0.626286 0.075594 -1.851972
v 0.657903 0.034468 -1.848883
v 0.667064 0.040390 -1.840682
v 0.623131 0.070976 -1.855776
v 0.631422 0.086188 -1.844765
v 0.676110 0.049405 -1.831000
v 0.681377 0.058121 -1.823487
v 0.629644 0.082291 -1.847335
v 0.681869 0.059085 -1.822703
v 0.632833 0.089533 -1.842645
v 0.631750 0.086968 -1.844268
v 0.685139 0.066728 -1.816929
v 0.690718 0.091191 -1.801678
v 0.638253 0.105808 -1.833393
v 0.636459 0.099980 -1.836605
v 0.692113 0.101764 -1.795842
v 0.634167 0.092956 -1.840566
v 0.685610 0.068289 -1.815886
v 0.688448 0.078084 -1.809409
v 0.633259 0.090620 -1.841984
v 0.634523 0.093875 -1.840007
v 0.690494 0.089499 -1.802612
v 0.636081 0.098755 -1.837280
v 0.688727 0.079221 -1.808686
v 0.629147 0.081212 -1.848051
v 0.668245 0.041189 -1.839611
v 0.675125 0.048347 -1.832091
v 0.626915 0.076513 -1.851215
v 0.648064 0.030094 -1.856853
v 0.622387 0.070248 -1.856526
v 0.617990 0.066120 -1.860889
v 0.656443 0.033659 -1.850131
v 0.612061 0.062270 -1.865954
v 0.638696 0.027124 -1.863916
v 0.640528 0.027703 -1.862532
v 0.610508 0.061395 -1.867216
v 0.641829 0.028117 -1.861557
v 0.617043 0.065460 -1.861721
v 0.613275 0.062954 -1.864973
v 0.646292 0.029531 -1.858189
v -0.681869 0.059085 -1.822705
v -0.632833 0.089533 -1.842640
v -0.685139 0.066728 -1.816934
v -0.631750 0.086969 -1.844267
v -0.690718 0.091191 -1.801681
v -0.638253 0.105808 -1.833398
v -0.692113 0.101764 -1.795842
v -0.636459 0.099980 -1.836603
v -0.634167 0.092956 -1.840564
v -0.685610 0.068289 -1.815885
v -0.633259 0.090620 -1.841987
v -0.688448 0.078084 -1.809406
v -0.634523 0.093875 -1.840006
v -0.690494 0.089499 -1.802614
v -0.688727 0.079221 -1.808685
v -0.636081 0.098755 -1.837277
v -0.629147 0.081212 -1.848051
v -0.668245 0.041189 -1.839611
v -0.626915 0.076513 -1.851216
v -0.675125 0.048347 -1.832091
v -0.626286 0.075594 -1.851971
v -0.657903 0.034468 -1.848888
v -0.623131 0.070976 -1.855776
v -0.667064 0.040390 -1.840680
v -0.648064 0.030094 -1.856851
v -0.622387 0.070248 -1.856524
v -0.656443 0.033659 -1.850134
v -0.617990 0.066120 -1.860887
v -0.638696 0.027124 -1.863916
v -0.612061 0.062270 -1.865958
v -0.640528 0.027703 -1.862534
v -0.610508 0.061395 -1.867210
v -0.641829 0.028117 -1.861554
v -0.617043 0.065460 -1.861724
v -0.646292 0.029531 -1.858192
v -0.613275 0.062954 -1.864971
v -0.631416 0.086188 -1.844764
v -0.676110 0.049405 -1.831002
v -0.629644 0.082291 -1.847336
v -0.681377 0.058121 -1.823488
v 0.428857 0.017585 -1.968682
v 0.435562 0.029649 -1.961701
v 0.433057 0.026040 -1.964040
v 0.464050 0.008649 -1.957365
v 0.423655 0.005893 -1.974614
v 0.442245 0.034303 -1.957086
v 0.438608 0.032320 -1.959417
v 0.452467 0.037213 -1.951379
v 0.446544 0.035785 -1.954604
v 0.461360 0.038845 -1.946682
v 0.498369 0.010843 -1.941276
v 0.494617 0.042564 -1.929467
v 0.473550 0.040217 -1.940069
v 0.533765 0.013279 -1.924238
v 0.529702 0.046516 -1.912048
v 0.567717 0.015791 -1.907310
v 0.564611 0.050720 -1.894650
v 0.593537 0.018392 -1.893464
v 0.581341 0.053210 -1.885991
v 0.597562 0.056615 -1.876774
v 0.616146 0.022116 -1.879944
v 0.605301 0.058949 -1.871756
v 0.628627 0.025044 -1.871559
v 0.611230 0.061484 -1.867420
v 0.638882 0.027860 -1.864182
vn -0.3733 0.3140 -0.8729
vn -0.4292 0.2615 -0.8645
vn -0.3609 0.2968 -0.8841
vn -0.3506 0.2947 -0.8889
vn -0.3699 0.3354 -0.8664
vn -0.4055 0.2809 -0.8699
vn -0.4047 0.2821 -0.8698
vn -0.3853 0.3332 -0.8605
vn -0.4083 0.2733 -0.8710
vn -0.3879 0.3495 -0.8528
vn -0.3841 0.3586 -0.8508
vn -0.3884 0.3639 -0.8466
vn 0.0940 0.9950 -0.0334
vn -0.3907 0.3582 -0.8480
vn -0.3866 0.3550 -0.8512
vn -0.4069 0.3440 -0.8462
vn -0.3963 0.3370 -0.8540
vn -0.4281 0.3296 -0.8415
vn -0.4051 0.3251 -0.8545
vn -0.4356 0.3209 -0.8410
vn -0.4605 0.3232 -0.8268
vn -0.4591 0.3178 -0.8296
vn -0.4823 0.3264 -0.8129
vn -0.4717 0.3185 -0.8222
vn -0.4933 0.3300 -0.8048
vn 0.4994 0.3222 -0.8042
vn 0.5039 0.3274 -0.7993
vn 0.5035 0.3270 -0.7997
vn 0.4982 0.3226 -0.8048
vn 0.5071 0.3042 -0.8064
vn 0.5280 0.3530 -0.7724
vn 0.5208 0.3424 -0.7820
vn 0.5007 0.3063 -0.8096
vn 0.5307 0.3538 -0.7702
vn 0.5109 0.2962 -0.8070
vn 0.5165 0.2941 -0.8042
vn 0.5331 0.3526 -0.7691
vn 0.5509 0.3439 -0.7604
vn 0.5506 0.2672 -0.7908
vn 0.5522 0.2731 -0.7877
vn 0.5541 0.3451 -0.7576
vn 0.5280 0.2857 -0.7998
vn 0.5373 0.3530 -0.7659
vn 0.5351 0.3512 -0.7683
vn 0.5213 0.2861 -0.8040
vn 0.5401 0.2785 -0.7942
vn 0.5497 0.2668 -0.7916
vn 0.5434 0.3496 -0.7632
vn 0.5379 0.3567 -0.7638
vn 0.4986 0.3107 -0.8093
vn 0.5139 0.3355 -0.7895
vn 0.5092 0.3312 -0.7944
vn 0.4971 0.3163 -0.8080
vn 0.5012 0.3275 -0.8010
vn 0.4929 0.3214 -0.8085
vn 0.4971 0.3234 -0.8051
vn 0.5024 0.3278 -0.8001
vn 0.4829 0.3178 -0.8160
vn 0.4986 0.3305 -0.8014
vn 0.4981 0.3309 -0.8015
vn 0.4823 0.3180 -0.8163
vn 0.4991 0.3287 -0.8018
vn 0.4853 0.3185 -0.8143
vn 0.4893 0.3199 -0.8113
vn 0.4999 0.3278 -0.8016
vn -0.5306 0.3538 -0.7702
vn -0.5331 0.3527 -0.7691
vn -0.5165 0.2941 -0.8042
vn -0.5110 0.2960 -0.8070
vn -0.5509 0.3439 -0.7604
vn -0.5541 0.3452 -0.7575
vn -0.5522 0.2729 -0.7878
vn -0.5506 0.2673 -0.7908
vn -0.5280 0.2857 -0.7998
vn -0.5213 0.2861 -0.8040
vn -0.5352 0.3512 -0.7683
vn -0.5374 0.3530 -0.7659
vn -0.5401 0.2785 -0.7942
vn -0.5379 0.3567 -0.7638
vn -0.5434 0.3496 -0.7632
vn -0.5497 0.2671 -0.7915
vn -0.4986 0.3107 -0.8093
vn -0.4971 0.3163 -0.8080
vn -0.5092 0.3312 -0.7944
vn -0.5139 0.3355 -0.7895
vn -0.4994 0.3221 -0.8043
vn -0.4982 0.3227 -0.8048
vn -0.5037 0.3273 -0.7995
vn -0.5041 0.3277 -0.7991
vn -0.5012 0.3275 -0.8009
vn -0.5027 0.3279 -0.7999
vn -0.4972 0.3232 -0.8052
vn -0.4930 0.3215 -0.8085
vn -0.4980 0.3309 -0.8015
vn -0.4986 0.3306 -0.8013
vn -0.4829 0.3178 -0.8160
vn -0.4823 0.3180 -0.8163
vn -0.4990 0.3287 -0.8018
vn -0.4999 0.3281 -0.8015
vn -0.4893 0.3200 -0.8113
vn -0.4853 0.3185 -0.8143
vn -0.5071 0.3042 -0.8064
vn -0.5008 0.3064 -0.8095
vn -0.5208 0.3424 -0.7820
vn -0.5280 0.3530 -0.7724
vn 0.3609 0.2970 -0.8840
vn 0.4293 0.2615 -0.8645
vn 0.3735 0.3140 -0.8729
vn 0.3699 0.3354 -0.8664
vn 0.3506 0.2947 -0.8889
vn 0.4046 0.2822 -0.8698
vn 0.4055 0.2808 -0.8699
vn 0.3854 0.3330 -0.8606
vn 0.4083 0.2734 -0.8710
vn 0.3879 0.3496 -0.8528
vn 0.3841 0.3587 -0.8508
vn -0.0939 0.9950 -0.0334
vn 0.3884 0.3639 -0.8466
vn 0.3907 0.3582 -0.8479
vn 0.3867 0.3550 -0.8512
vn 0.4069 0.3441 -0.8462
vn 0.3963 0.3371 -0.8540
vn 0.4282 0.3296 -0.8414
vn 0.4050 0.3253 -0.8545
vn 0.4356 0.3210 -0.8410
vn 0.4605 0.3232 -0.8267
vn 0.4591 0.3178 -0.8296
vn 0.4823 0.3265 -0.8129
vn 0.4716 0.3186 -0.8222
vn 0.4933 0.3300 -0.8048
vt 0.724593 0.454675
vt 0.731679 0.447688
vt 0.744546 0.431064
vt 0.760830 0.408076
vt 0.672918 0.405606
vt 0.707887 0.463095
vt 0.716744 0.459646
vt 0.684169 0.467337
vt 0.697800 0.465410
vt 0.663891 0.469188
vt 0.597080 0.403956
vt 0.588705 0.471492
vt 0.636067 0.470227
vt 0.518426 0.402811
vt 0.510043 0.473533
vt 0.442455 0.402376
vt 0.431678 0.476095
vt 0.383679 0.403860
vt 0.393781 0.478401
vt 0.356151 0.482949
vt 0.330729 0.408607
vt 0.337540 0.486770
vt 0.300489 0.413346
vt 0.322709 0.491361
vt 0.275096 0.418255
vt 0.636152 0.551497
vt 0.705600 0.085288
vt 0.808292 0.141119
vt 0.693195 0.561410
vt 0.518024 0.546838
vt 0.468465 0.025738
vt 0.575800 0.040635
vt 0.560803 0.547592
vt 0.457042 0.024808
vt 0.508871 0.546968
vt 0.481279 0.547192
vt 0.370415 0.022846
vt 0.121359 0.057689
vt 0.373330 0.555179
vt 0.314676 0.561596
vt 0.020000 0.081466
vt 0.445179 0.548540
vt 0.250779 0.033056
vt 0.353852 0.024102
vt 0.469812 0.547619
vt 0.435133 0.549033
vt 0.385661 0.553831
vt 0.137586 0.053877
vt 0.239077 0.034516
vt 0.572665 0.547805
vt 0.590606 0.045219
vt 0.692038 0.078193
vt 0.624788 0.549516
vt 0.901421 0.208015
vt 0.763419 0.587037
vt 0.703579 0.565018
vt 0.823450 0.150455
vt 0.828898 0.622522
vt 0.964454 0.262590
vt 0.979772 0.275860
vt 0.844846 0.632249
vt 0.953587 0.253189
vt 0.816449 0.614915
vt 0.774271 0.592570
vt 0.916271 0.220866
s 1
f 1/1/1 3/2/2 2/3/3
f 2/3/3 5/4/4 4/5/5
f 1/1/1 2/3/3 4/5/5
f 1/1/1 7/6/6 6/7/7
f 1/1/1 4/5/5 8/8/8
f 1/1/1 8/8/8 7/6/6
f 8/8/8 9/9/9 7/6/6
f 4/5/5 10/10/10 8/8/8
f 10/10/10 4/5/5 11/11/11
f 12/12/12 13/13/13 10/10/10
f 12/12/12 10/10/10 11/11/11
f 12/12/12 11/11/11 14/14/14
f 14/14/14 15/15/15 12/12/12
f 15/15/15 14/14/14 16/16/16
f 16/16/16 17/17/17 15/15/15
f 17/17/17 16/16/16 18/18/18
f 18/18/18 19/19/19 17/17/17
f 20/20/20 19/19/19 18/18/18
f 18/18/18 21/21/21 20/20/20
f 22/22/22 20/20/20 21/21/21
f 21/21/21 23/23/23 22/22/22
f 24/24/24 22/22/22 23/23/23
f 23/23/23 25/25/25 24/24/24
f 26/26/26 28/27/27 27/28/28
f 27/28/28 29/29/29 26/26/26
f 30/30/30 32/31/31 31/32/32
f 31/32/32 33/33/33 30/30/30
f 34/34/34 36/35/35 35/36/36
f 35/36/36 37/37/37 34/34/34
f 38/38/38 40/39/39 39/40/40
f 39/40/40 41/41/41 38/38/38
f 42/42/42 44/43/43 43/44/44
f 43/44/44 45/45/45 42/42/42
f 46/46/46 48/47/47 47/48/48
f 47/48/48 49/49/49 46/46/46
f 50/50/50 52/51/51 51/52/52
f 51/52/52 53/53/53 50/50/50
f 54/54/54 56/55/55 55/56/56
f 55/56/56 57/57/57 54/54/54
f 58/58/58 60/59/59 59/60/60
f 59/60/60 61/61/61 58/58/58
f 62/62/62 64/63/63 63/64/64
f 63/64/64 65/65/65 62/62/62
f 66/34/66 68/37/67 67/36/68
f 67/36/68 69/35/69 66/34/66
f 70/38/70 72/41/71 71/40/72
f 71/40/72 73/39/73 70/38/70
f 74/42/74 76/45/75 75/44/76
f 75/44/76 77/43/77 74/42/74
f 78/46/78 80/49/79 79/48/80
f 79/48/80 81/47/81 78/46/78
f 82/50/82 84/53/83 83/52/84
f 83/52/84 85/51/85 82/50/82
f 86/26/86 88/29/87 87/28/88
f 87/28/88 89/27/89 86/26/86
f 90/54/90 92/57/91 91/56/92
f 91/56/92 93/55/93 90/54/90
f 94/60/94 96/59/95 95/58/96
f 95/58/96 97/61/97 94/60/94
f 98/62/98 100/65/99 99/64/100
f 99/64/100 101/63/101 98/62/98
f 102/30/102 104/33/103 103/32/104
f 103/32/104 105/31/105 102/30/102
f 106/3/106 108/2/107 107/1/108
f 109/5/109 106/3/106 107/1/108
f 109/5/109 110/4/110 106/3/106
f 107/1/108 112/7/111 111/6/112
f 113/8/113 111/6/112 114/9/114
f 113/8/113 107/1/108 111/6/112
f 113/8/113 109/5/109 107/1/108
f 113/8/113 115/10/115 109/5/109
f 115/10/115 116/11/116 109/5/109
f 115/10/115 118/13/117 117/12/118
f 115/10/115 117/12/118 116/11/116
f 119/14/119 116/11/116 117/12/118
f 117/12/118 120/15/120 119/14/119
f 121/16/121 119/14/119 120/15/120
f 120/15/120 122/17/122 121/16/121
f 123/18/123 121/16/121 122/17/122
f 122/17/122 124/19/124 123/18/123
f 123/18/123 124/19/124 125/20/125
f 125/20/125 126/21/126 123/18/123
f 126/21/126 125/20/125 127/22/127
f 127/22/127 128/23/128 126/21/126
f 128/23/128 127/22/127 129/24/129
f 129/24/129 130/25/130 128/23/128
