# Blender 5.2.2 LTS
# www.blender.org
mtllib fdrl.mtl
o headlightR_a_LODS0_Label_CH1
v -0.738493 -0.072039 1.709342
v -0.753653 -0.062723 1.676988
v -0.753534 -0.062423 1.676190
v -0.729356 -0.077243 1.723998
v -0.729927 -0.075873 1.711013
v -0.727845 -0.074972 1.711269
v -0.729927 -0.075873 1.711013
v -0.730638 -0.072822 1.716568
v -0.727845 -0.074972 1.711269
v -0.731895 -0.072991 1.716116
v -0.704596 -0.106712 1.762426
v -0.714012 -0.102421 1.765045
v -0.709948 -0.102623 1.754529
v -0.719900 -0.096333 1.753649
v -0.714524 -0.098009 1.746445
v -0.718673 -0.092968 1.737909
v -0.724635 -0.088511 1.740852
v -0.722116 -0.087524 1.729312
v -0.727850 -0.081860 1.730502
v -0.725028 -0.081522 1.720550
v -0.729356 -0.077243 1.723998
v -0.727845 -0.074972 1.711269
v -0.729927 -0.075873 1.711013
v -0.740029 -0.069385 1.706368
v -0.731895 -0.072991 1.716116
v -0.738324 -0.071090 1.698630
v -0.753534 -0.062423 1.676190
v -0.738493 -0.072039 1.709342
v -0.729927 -0.075873 1.711013
v -0.729356 -0.077243 1.723998
v -0.738324 -0.071090 1.698630
v -0.753534 -0.062423 1.676190
v -0.726633 -0.114733 1.763525
v -0.726742 -0.100838 1.753897
v -0.720963 -0.107165 1.765640
v -0.733023 -0.107972 1.750788
v -0.731775 -0.092594 1.740009
v -0.739572 -0.098314 1.734551
v -0.735433 -0.083601 1.726294
v -0.745166 -0.087482 1.716869
v -0.738493 -0.072039 1.709342
v -0.749484 -0.076363 1.698991
v -0.753390 -0.063820 1.678765
v -0.753653 -0.062723 1.676988
v -0.729356 -0.077243 1.723998
v -0.735433 -0.083601 1.726294
v -0.738493 -0.072039 1.709342
v -0.727850 -0.081860 1.730502
v -0.731775 -0.092594 1.740009
v -0.724635 -0.088511 1.740852
v -0.726742 -0.100838 1.753897
v -0.719900 -0.096333 1.753649
v -0.714012 -0.102421 1.765045
v -0.720963 -0.107165 1.765640
v -0.738757 -0.011928 1.629738
v -0.736401 -0.007270 1.625349
v -0.732849 -0.013402 1.634691
v -0.734712 -0.019021 1.640969
v -0.740754 -0.016601 1.634473
v -0.742463 -0.021912 1.640450
v -0.736302 -0.026591 1.650190
v -0.743472 -0.028160 1.648211
v -0.736550 -0.034609 1.661052
v -0.743889 -0.036519 1.659321
v -0.743636 -0.044219 1.669958
v -0.736317 -0.042067 1.671463
v -0.735800 -0.048012 1.679788
v -0.743159 -0.050123 1.678208
v -0.734712 -0.055075 1.689936
v -0.742175 -0.057516 1.688791
v -0.741102 -0.063449 1.697576
v -0.733023 -0.062432 1.700971
v -0.730638 -0.072822 1.716568
v -0.731895 -0.072991 1.716116
v -0.740029 -0.069385 1.706368
v -0.731254 -0.014985 1.636874
v -0.734712 -0.019021 1.640969
v -0.732849 -0.013402 1.634691
v -0.732794 -0.020014 1.641774
v -0.733629 -0.024412 1.646524
v -0.736302 -0.026591 1.650190
v -0.734260 -0.028928 1.651523
v -0.736550 -0.034609 1.661052
v -0.734528 -0.033325 1.656626
v -0.734483 -0.037767 1.662016
v -0.734096 -0.044000 1.669784
v -0.736317 -0.042067 1.671463
v -0.733385 -0.050132 1.677590
v -0.735800 -0.048012 1.679788
v -0.734712 -0.055075 1.689936
v -0.732098 -0.057427 1.687301
v -0.730409 -0.065071 1.697629
v -0.733023 -0.062432 1.700971
v -0.730638 -0.072822 1.716568
v -0.727845 -0.074972 1.711269
v -0.732849 -0.013402 1.634691
v -0.734732 -0.009322 1.623964
v -0.731254 -0.014985 1.636874
v -0.736401 -0.007270 1.625349
v -0.749141 0.016247 1.567673
v -0.747740 0.014658 1.566281
v -0.740029 -0.069385 1.706368
v -0.753534 -0.062423 1.676190
v -0.753857 -0.061877 1.675618
v -0.741102 -0.063449 1.697576
v -0.742175 -0.057516 1.688791
v -0.743159 -0.050123 1.678208
v -0.756192 -0.052214 1.659991
v -0.743636 -0.044219 1.669958
v -0.758200 -0.041290 1.642460
v -0.743889 -0.036519 1.659321
v -0.743472 -0.028160 1.648211
v -0.759626 -0.030253 1.624935
v -0.742463 -0.021912 1.640450
v -0.760515 -0.019908 1.608706
v -0.740754 -0.016601 1.634473
v -0.760922 -0.011602 1.595691
v -0.738757 -0.011928 1.629738
v -0.736401 -0.007270 1.625349
v -0.760724 -0.003068 1.582841
v -0.760063 0.003767 1.573108
v -0.759626 0.006050 1.570142
v -0.758622 0.008532 1.567606
v -0.757027 0.010892 1.566025
v -0.754498 0.013383 1.565287
v -0.751810 0.015100 1.565995
v -0.749141 0.016247 1.567673
v 0.729356 -0.077243 1.723998
v 0.727845 -0.074972 1.711269
v 0.729927 -0.075873 1.711013
v 0.738493 -0.072039 1.709342
v 0.753534 -0.062423 1.676190
v 0.753653 -0.062720 1.676988
v 0.729927 -0.075873 1.711013
v 0.730638 -0.072822 1.716568
v 0.731895 -0.072991 1.716116
v 0.727845 -0.074972 1.711269
v 0.753534 -0.062423 1.676190
v 0.738324 -0.071090 1.698630
v 0.740029 -0.069382 1.706368
v 0.729927 -0.075873 1.711013
v 0.731895 -0.072991 1.716116
v 0.704596 -0.106712 1.762426
v 0.709948 -0.102623 1.754529
v 0.714012 -0.102421 1.765045
v 0.719900 -0.096333 1.753649
v 0.714524 -0.098009 1.746445
v 0.718673 -0.092968 1.737909
v 0.724635 -0.088508 1.740852
v 0.722116 -0.087524 1.729312
v 0.727850 -0.081860 1.730502
v 0.725028 -0.081522 1.720550
v 0.729356 -0.077243 1.723998
v 0.727845 -0.074972 1.711269
v 0.729927 -0.075873 1.711013
v 0.738493 -0.072039 1.709342
v 0.729356 -0.077243 1.723998
v 0.738324 -0.071090 1.698630
v 0.753534 -0.062423 1.676190
v 0.738757 -0.011928 1.629738
v 0.732849 -0.013402 1.634691
v 0.736401 -0.007270 1.625349
v 0.734712 -0.019021 1.640969
v 0.740754 -0.016601 1.634473
v 0.742463 -0.021912 1.640450
v 0.736302 -0.026591 1.650190
v 0.743472 -0.028160 1.648211
v 0.736550 -0.034609 1.661052
v 0.743889 -0.036519 1.659321
v 0.743636 -0.044219 1.669958
v 0.736317 -0.042067 1.671463
v 0.735800 -0.048012 1.679788
v 0.743159 -0.050123 1.678208
v 0.734712 -0.055075 1.689936
v 0.742175 -0.057516 1.688791
v 0.741102 -0.063449 1.697576
v 0.733023 -0.062432 1.700971
v 0.730638 -0.072822 1.716568
v 0.731895 -0.072991 1.716116
v 0.740029 -0.069382 1.706368
v 0.726742 -0.100838 1.753897
v 0.726633 -0.114733 1.763525
v 0.720963 -0.107165 1.765640
v 0.733023 -0.107972 1.750788
v 0.731775 -0.092594 1.740009
v 0.739572 -0.098314 1.734551
v 0.735433 -0.083601 1.726294
v 0.745166 -0.087482 1.716869
v 0.738493 -0.072039 1.709342
v 0.749484 -0.076363 1.698991
v 0.753390 -0.063820 1.678765
v 0.753653 -0.062720 1.676988
v 0.735433 -0.083601 1.726294
v 0.729356 -0.077243 1.723998
v 0.738493 -0.072039 1.709342
v 0.727850 -0.081860 1.730502
v 0.731775 -0.092594 1.740009
v 0.724635 -0.088508 1.740852
v 0.726742 -0.100838 1.753897
v 0.719900 -0.096333 1.753649
v 0.714012 -0.102421 1.765045
v 0.720963 -0.107165 1.765640
v 0.734732 -0.009322 1.623964
v 0.732849 -0.013402 1.634691
v 0.731254 -0.014985 1.636874
v 0.736401 -0.007270 1.625349
v 0.749141 0.016247 1.567673
v 0.747740 0.014658 1.566281
v 0.734712 -0.019021 1.640969
v 0.731254 -0.014985 1.636874
v 0.732849 -0.013402 1.634691
v 0.732794 -0.020014 1.641774
v 0.733629 -0.024412 1.646524
v 0.736302 -0.026591 1.650190
v 0.734260 -0.028928 1.651523
v 0.736550 -0.034609 1.661052
v 0.734528 -0.033325 1.656626
v 0.734483 -0.037767 1.662016
v 0.734096 -0.044000 1.669784
v 0.736317 -0.042067 1.671463
v 0.733385 -0.050132 1.677590
v 0.735800 -0.048012 1.679788
v 0.734712 -0.055075 1.689936
v 0.732098 -0.057427 1.687301
v 0.730409 -0.065071 1.697629
v 0.733023 -0.062432 1.700971
v 0.730638 -0.072822 1.716568
v 0.727845 -0.074972 1.711269
v 0.740029 -0.069382 1.706368
v 0.753857 -0.061875 1.675618
v 0.753534 -0.062423 1.676190
v 0.741102 -0.063449 1.697576
v 0.742175 -0.057516 1.688791
v 0.743159 -0.050123 1.678208
v 0.756192 -0.052214 1.659991
v 0.743636 -0.044219 1.669958
v 0.758200 -0.041290 1.642460
v 0.743889 -0.036519 1.659321
v 0.743472 -0.028160 1.648211
v 0.759626 -0.030253 1.624935
v 0.742463 -0.021912 1.640450
v 0.760515 -0.019908 1.608706
v 0.740754 -0.016601 1.634473
v 0.760922 -0.011602 1.595691
v 0.738757 -0.011928 1.629738
v 0.736401 -0.007270 1.625349
v 0.760724 -0.003068 1.582841
v 0.760063 0.003767 1.573108
v 0.759626 0.006050 1.570142
v 0.758622 0.008532 1.567606
v 0.757027 0.010892 1.566025
v 0.754498 0.013383 1.565287
v 0.751810 0.015100 1.565995
v 0.749141 0.016247 1.567673
v 0.481378 -0.140993 1.940700
v 0.498550 -0.136735 1.911960
v 0.510018 -0.137701 1.926195
v 0.501268 -0.136423 1.909228
v 0.541356 -0.134775 1.907767
v 0.516453 -0.134911 1.899766
v 0.542594 -0.132293 1.883408
v 0.574772 -0.131460 1.886321
v 0.575830 -0.128906 1.862354
v 0.604599 -0.128082 1.865929
v 0.602572 -0.126098 1.844913
v 0.630208 -0.125155 1.847314
v 0.629056 -0.123166 1.827072
v 0.648051 -0.123163 1.833802
v 0.661238 -0.121547 1.823361
v 0.647385 -0.121072 1.814065
v 0.660662 -0.119551 1.804226
v 0.671216 -0.120156 1.815134
v 0.670838 -0.118163 1.796443
v 0.680835 -0.118359 1.806590
v 0.689208 -0.116147 1.798407
v 0.680453 -0.116396 1.788448
v 0.687171 -0.114664 1.782351
v 0.696895 -0.113244 1.789811
v 0.693516 -0.112518 1.775975
v 0.702778 -0.110137 1.782073
v 0.699344 -0.109870 1.769321
v 0.708243 -0.106818 1.774297
v 0.714012 -0.102421 1.765045
v 0.704596 -0.106712 1.762426
v 0.720163 -0.119584 1.774078
v 0.720963 -0.107165 1.765640
v 0.726633 -0.114733 1.763525
v 0.715349 -0.111868 1.775215
v 0.713361 -0.123311 1.783548
v 0.709585 -0.115785 1.783992
v 0.703061 -0.119361 1.792814
v 0.706141 -0.126336 1.792461
v 0.698311 -0.128912 1.801260
v 0.695200 -0.122691 1.801953
v 0.689451 -0.131376 1.810632
v 0.686664 -0.125387 1.810692
v 0.676860 -0.127637 1.819883
v 0.680259 -0.133509 1.819770
v 0.669730 -0.135587 1.829654
v 0.666674 -0.129458 1.828773
v 0.656548 -0.137764 1.841224
v 0.653726 -0.131596 1.839568
v 0.636181 -0.134285 1.853539
v 0.638129 -0.140266 1.856144
v 0.612514 -0.143128 1.875045
v 0.610706 -0.138036 1.872945
v 0.582389 -0.146241 1.895806
v 0.581191 -0.142122 1.894301
v 0.549431 -0.149651 1.917102
v 0.548735 -0.147122 1.916176
v 0.517362 -0.152756 1.936666
v 0.517094 -0.151573 1.936124
v 0.494406 -0.154654 1.949764
v 0.720963 -0.107165 1.765640
v 0.708243 -0.106818 1.774297
v 0.714012 -0.102421 1.765045
v 0.715349 -0.111868 1.775215
v 0.702778 -0.110137 1.782073
v 0.709585 -0.115785 1.783992
v 0.703061 -0.119361 1.792814
v 0.696895 -0.113244 1.789811
v 0.689208 -0.116147 1.798407
v 0.695200 -0.122691 1.801953
v 0.680835 -0.118359 1.806590
v 0.686664 -0.125387 1.810692
v 0.676860 -0.127637 1.819883
v 0.671216 -0.120156 1.815134
v 0.661238 -0.121547 1.823361
v 0.666674 -0.129458 1.828773
v 0.653726 -0.131596 1.839568
v 0.648051 -0.123163 1.833802
v 0.636181 -0.134285 1.853539
v 0.630208 -0.125155 1.847314
v 0.604599 -0.128082 1.865929
v 0.610706 -0.138036 1.872945
v 0.574772 -0.131460 1.886321
v 0.581191 -0.142122 1.894301
v 0.548735 -0.147122 1.916176
v 0.541356 -0.134775 1.907767
v 0.517094 -0.151573 1.936124
v 0.510018 -0.137701 1.926195
v 0.494406 -0.154654 1.949764
v 0.481378 -0.140993 1.940700
v 0.478760 -0.155831 1.958187
v 0.469990 -0.156323 1.962711
v 0.466497 -0.156516 1.964457
v 0.464057 -0.156409 1.965421
v 0.461995 -0.155869 1.965744
v 0.460539 -0.154995 1.965443
v 0.460137 -0.154532 1.965120
v -0.517094 -0.151573 1.936124
v -0.494406 -0.154654 1.949764
v -0.517362 -0.152756 1.936666
v -0.548735 -0.147122 1.916176
v -0.549431 -0.149651 1.917102
v -0.581191 -0.142122 1.894301
v -0.582389 -0.146244 1.895806
v -0.610706 -0.138036 1.872945
v -0.612514 -0.143128 1.875045
v -0.636181 -0.134285 1.853539
v -0.638129 -0.140266 1.856144
v -0.656548 -0.137767 1.841224
v -0.653726 -0.131596 1.839568
v -0.666674 -0.129458 1.828773
v -0.669730 -0.135587 1.829654
v -0.676860 -0.127637 1.819883
v -0.680259 -0.133509 1.819770
v -0.689451 -0.131376 1.810632
v -0.686664 -0.125387 1.810692
v -0.695200 -0.122691 1.801953
v -0.698311 -0.128912 1.801260
v -0.703061 -0.119361 1.792814
v -0.706141 -0.126336 1.792461
v -0.713361 -0.123311 1.783548
v -0.709585 -0.115785 1.783992
v -0.715349 -0.111868 1.775215
v -0.720163 -0.119584 1.774078
v -0.720963 -0.107165 1.765640
v -0.726633 -0.114733 1.763525
v -0.481378 -0.140996 1.940700
v -0.510018 -0.137701 1.926195
v -0.498550 -0.136735 1.911960
v -0.501268 -0.136423 1.909228
v -0.541356 -0.134778 1.907767
v -0.516453 -0.134914 1.899766
v -0.542594 -0.132293 1.883408
v -0.574772 -0.131462 1.886321
v -0.575830 -0.128906 1.862354
v -0.604599 -0.128082 1.865929
v -0.602572 -0.126098 1.844913
v -0.630208 -0.125155 1.847314
v -0.629056 -0.123166 1.827072
v -0.648051 -0.123163 1.833802
v -0.661238 -0.121547 1.823361
v -0.647385 -0.121072 1.814065
v -0.660662 -0.119551 1.804226
v -0.671216 -0.120159 1.815134
v -0.670838 -0.118163 1.796443
v -0.680835 -0.118359 1.806590
v -0.689208 -0.116147 1.798407
v -0.680453 -0.116396 1.788448
v -0.687171 -0.114664 1.782351
v -0.696895 -0.113244 1.789811
v -0.693516 -0.112518 1.775975
v -0.702778 -0.110137 1.782073
v -0.699344 -0.109870 1.769321
v -0.708243 -0.106818 1.774297
v -0.714012 -0.102421 1.765045
v -0.704596 -0.106712 1.762426
v -0.708243 -0.106818 1.774297
v -0.720963 -0.107165 1.765640
v -0.714012 -0.102421 1.765045
v -0.715349 -0.111868 1.775215
v -0.702778 -0.110137 1.782073
v -0.709585 -0.115785 1.783992
v -0.703061 -0.119361 1.792814
v -0.696895 -0.113244 1.789811
v -0.689208 -0.116147 1.798407
v -0.695200 -0.122691 1.801953
v -0.680835 -0.118359 1.806590
v -0.686664 -0.125387 1.810692
v -0.676860 -0.127637 1.819883
v -0.671216 -0.120159 1.815134
v -0.661238 -0.121547 1.823361
v -0.666674 -0.129458 1.828773
v -0.653726 -0.131596 1.839568
v -0.648051 -0.123163 1.833802
v -0.636181 -0.134285 1.853539
v -0.630208 -0.125155 1.847314
v -0.604599 -0.128082 1.865929
v -0.610706 -0.138036 1.872945
v -0.574772 -0.131462 1.886321
v -0.581191 -0.142122 1.894301
v -0.548735 -0.147122 1.916176
v -0.541356 -0.134778 1.907767
v -0.517094 -0.151573 1.936124
v -0.510018 -0.137701 1.926195
v -0.494406 -0.154654 1.949764
v -0.481378 -0.140996 1.940700
v -0.478760 -0.155831 1.958187
v -0.469990 -0.156323 1.962711
v -0.466497 -0.156516 1.964457
v -0.464057 -0.156409 1.965421
v -0.461995 -0.155869 1.965744
v -0.460539 -0.154995 1.965443
v -0.460137 -0.154532 1.965120
vn -0.1269 0.9358 0.3289
vn -0.4061 0.9067 0.1138
vn -0.4062 0.9067 0.1138
vn 0.2507 -0.8346 0.4905
vn 0.2952 -0.8210 0.4887
vn 0.0225 -0.8750 0.4836
vn -0.0523 -0.8780 0.4757
vn 0.4369 0.8930 0.1082
vn 0.4918 0.8529 0.1752
vn 0.4559 0.8763 0.1558
vn 0.5432 0.8164 0.1961
vn 0.5305 0.8226 0.2045
vn 0.6308 0.7476 0.2077
vn 0.6623 0.7200 0.2074
vn 0.6953 0.6859 0.2145
vn 0.7242 0.6524 0.2233
vn 0.7536 0.6204 0.2172
vn 0.7693 0.5988 0.2225
vn 0.7648 0.6124 0.2000
vn -0.5861 -0.7927 0.1674
vn -0.5947 -0.7763 0.2091
vn -0.5656 -0.8203 0.0842
vn -0.5587 -0.8273 0.0592
vn 0.3932 0.9155 0.0852
vn 0.3943 0.9155 0.0793
vn 0.3939 0.9155 0.0816
vn 0.3928 0.9155 0.0873
vn -0.7189 0.3771 0.5839
vn -0.7198 0.3741 0.5848
vn -0.7325 0.4052 0.5470
vn -0.7275 0.4124 0.5483
vn -0.7159 0.4568 0.5281
vn -0.7081 0.4700 0.5270
vn -0.6984 0.5039 0.5082
vn -0.6898 0.5222 0.5016
vn -0.6805 0.5435 0.4915
vn -0.6755 0.5550 0.4854
vn -0.6386 0.6063 0.4740
vn -0.6335 0.6122 0.4731
vn -0.4877 0.6688 0.5611
vn -0.4966 0.6727 0.5485
vn -0.4805 0.6706 0.5652
vn -0.4690 0.6713 0.5740
vn -0.4589 0.6794 0.5725
vn -0.4530 0.6811 0.5753
vn -0.4345 0.6874 0.5820
vn -0.4312 0.6871 0.5847
vn -0.4232 0.6900 0.5872
vn -0.4219 0.6925 0.5852
vn -0.3211 0.7364 0.5955
vn -0.3068 0.7480 0.5885
vn -0.3225 0.7304 0.6021
vn -0.3193 0.7527 0.5758
vn -0.3300 0.7422 0.5834
vn -0.3205 0.7557 0.5712
vn -0.3216 0.7616 0.5626
vn -0.3233 0.7605 0.5631
vn -0.3299 0.7615 0.5579
vn -0.3298 0.7606 0.5592
vn -0.3362 0.7588 0.5579
vn -0.3377 0.7587 0.5570
vn -0.3374 0.7557 0.5613
vn -0.3367 0.7562 0.5610
vn -0.3338 0.7593 0.5586
vn -0.3341 0.7597 0.5579
vn -0.3304 0.7619 0.5570
vn -0.3303 0.7614 0.5579
vn -0.3121 0.7724 0.5532
vn -0.3071 0.7754 0.5518
vn -0.3274 0.7641 0.5558
vn -0.0991 0.7499 0.6541
vn -0.1234 0.7574 0.6412
vn 0.0674 0.7113 0.6996
vn 0.0761 0.7105 0.6996
vn 0.2828 0.7103 0.6446
vn 0.3681 0.6909 0.6222
vn 0.4554 0.6898 0.5629
vn 0.6717 0.5791 0.4620
vn 0.7097 0.5206 0.4746
vn 0.6840 0.5806 0.4415
vn 0.7489 0.5488 0.3716
vn 0.7555 0.5446 0.3641
vn 0.7724 0.5465 0.3236
vn 0.7730 0.5482 0.3195
vn 0.7881 0.5459 0.2844
vn 0.7854 0.5460 0.2917
vn 0.8165 0.5290 0.2313
vn 0.8198 0.5265 0.2254
vn 0.8231 0.5220 0.2236
vn 0.8241 0.5207 0.2231
vn 0.5435 0.8118 0.2134
vn 0.5157 0.8270 0.2241
vn 0.7909 0.6065 0.0820
vn 0.7977 0.5981 0.0774
vn 0.7825 0.6174 0.0802
vn 0.7819 0.6182 0.0807
vn -0.7202 0.5261 0.4524
vn -0.7669 0.4562 0.4515
vn -0.9149 -0.1500 0.3749
vn -0.7104 0.5400 0.4513
vn -0.7098 0.5419 0.4501
vn -0.7074 0.5497 0.4444
vn -0.7046 0.5594 0.4365
vn -0.7026 0.5623 0.4362
vn -0.6930 0.5817 0.4260
vn -0.6953 0.5785 0.4265
vn -0.6839 0.5982 0.4177
vn -0.6786 0.6014 0.4218
vn -0.6614 0.6280 0.4101
vn -0.6578 0.6250 0.4203
vn -0.6311 0.6610 0.4059
vn -0.6316 0.6507 0.4214
vn -0.6121 0.6792 0.4050
vn -0.6080 0.6817 0.4070
vn -0.6234 0.6583 0.4218
vn -0.6189 0.6635 0.4205
vn -0.6107 0.6719 0.4190
vn -0.6009 0.6815 0.4177
vn -0.5832 0.6975 0.4163
vn -0.5694 0.7093 0.4155
vn -0.5656 0.7125 0.4153
vn -0.5672 0.7112 0.4153
vn 0.4061 0.9067 0.1138
vn 0.4062 0.9067 0.1138
vn 0.1271 0.9357 0.3290
vn -0.2507 -0.8346 0.4905
vn 0.0524 -0.8781 0.4757
vn -0.0224 -0.8750 0.4836
vn -0.2948 -0.8211 0.4888
vn 0.5589 -0.8271 0.0594
vn 0.5659 -0.8202 0.0844
vn 0.5862 -0.7928 0.1671
vn 0.5948 -0.7762 0.2090
vn -0.4369 0.8930 0.1082
vn -0.4559 0.8763 0.1558
vn -0.4918 0.8529 0.1752
vn -0.5433 0.8163 0.1961
vn -0.5305 0.8226 0.2045
vn -0.6310 0.7475 0.2077
vn -0.6625 0.7198 0.2073
vn -0.6954 0.6859 0.2144
vn -0.7242 0.6524 0.2233
vn -0.7536 0.6204 0.2172
vn -0.7693 0.5988 0.2225
vn -0.7648 0.6124 0.2000
vn -0.3939 0.9155 0.0816
vn -0.3943 0.9155 0.0793
vn -0.3932 0.9155 0.0852
vn -0.3928 0.9155 0.0873
vn 0.3211 0.7364 0.5955
vn 0.3225 0.7304 0.6021
vn 0.3068 0.7480 0.5885
vn 0.3193 0.7527 0.5758
vn 0.3300 0.7422 0.5834
vn 0.3205 0.7557 0.5712
vn 0.3211 0.7619 0.5625
vn 0.3233 0.7605 0.5631
vn 0.3299 0.7615 0.5579
vn 0.3298 0.7606 0.5592
vn 0.3362 0.7588 0.5579
vn 0.3377 0.7587 0.5570
vn 0.3374 0.7557 0.5613
vn 0.3367 0.7562 0.5610
vn 0.3338 0.7593 0.5586
vn 0.3341 0.7597 0.5579
vn 0.3304 0.7620 0.5570
vn 0.3303 0.7614 0.5579
vn 0.3121 0.7724 0.5532
vn 0.3071 0.7754 0.5518
vn 0.3268 0.7644 0.5557
vn 0.7325 0.4052 0.5470
vn 0.7198 0.3741 0.5848
vn 0.7189 0.3771 0.5839
vn 0.7275 0.4124 0.5483
vn 0.7159 0.4568 0.5281
vn 0.7081 0.4700 0.5270
vn 0.6984 0.5039 0.5082
vn 0.6898 0.5222 0.5016
vn 0.6805 0.5435 0.4915
vn 0.6755 0.5550 0.4854
vn 0.6383 0.6065 0.4741
vn 0.6332 0.6125 0.4732
vn 0.4805 0.6706 0.5652
vn 0.4966 0.6727 0.5485
vn 0.4877 0.6688 0.5611
vn 0.4690 0.6713 0.5740
vn 0.4594 0.6793 0.5723
vn 0.4532 0.6810 0.5753
vn 0.4345 0.6874 0.5820
vn 0.4312 0.6871 0.5848
vn 0.4232 0.6900 0.5872
vn 0.4219 0.6925 0.5852
vn -0.7909 0.6064 0.0819
vn -0.5156 0.8270 0.2241
vn -0.5435 0.8118 0.2134
vn -0.7975 0.5983 0.0775
vn -0.7825 0.6174 0.0802
vn -0.7823 0.6177 0.0804
vn -0.0676 0.7113 0.6996
vn 0.1231 0.7574 0.6412
vn 0.0991 0.7499 0.6541
vn -0.0762 0.7105 0.6996
vn -0.2828 0.7103 0.6446
vn -0.3681 0.6909 0.6222
vn -0.4554 0.6898 0.5629
vn -0.6715 0.5792 0.4621
vn -0.7097 0.5206 0.4746
vn -0.6840 0.5806 0.4415
vn -0.7486 0.5489 0.3719
vn -0.7557 0.5445 0.3639
vn -0.7724 0.5465 0.3236
vn -0.7726 0.5485 0.3198
vn -0.7881 0.5459 0.2844
vn -0.7854 0.5460 0.2917
vn -0.8165 0.5290 0.2313
vn -0.8198 0.5265 0.2254
vn -0.8231 0.5220 0.2236
vn -0.8241 0.5207 0.2231
vn 0.7201 0.5261 0.4523
vn 0.9148 -0.1501 0.3749
vn 0.7668 0.4563 0.4515
vn 0.7103 0.5402 0.4513
vn 0.7097 0.5420 0.4501
vn 0.7073 0.5498 0.4444
vn 0.7046 0.5594 0.4365
vn 0.7026 0.5623 0.4362
vn 0.6930 0.5817 0.4260
vn 0.6953 0.5785 0.4265
vn 0.6839 0.5982 0.4177
vn 0.6786 0.6014 0.4218
vn 0.6614 0.6280 0.4101
vn 0.6578 0.6250 0.4203
vn 0.6311 0.6610 0.4059
vn 0.6316 0.6507 0.4214
vn 0.6121 0.6792 0.4050
vn 0.6080 0.6817 0.4070
vn 0.6234 0.6583 0.4218
vn 0.6189 0.6635 0.4205
vn 0.6107 0.6719 0.4190
vn 0.6009 0.6815 0.4177
vn 0.5832 0.6975 0.4163
vn 0.5694 0.7093 0.4155
vn 0.5656 0.7125 0.4153
vn 0.5672 0.7112 0.4153
vn -0.0568 0.9920 0.1130
vn -0.0453 0.9937 0.1022
vn -0.0387 0.9944 0.0986
vn -0.0323 0.9952 0.0925
vn -0.0366 0.9945 0.0986
vn -0.0373 0.9944 0.0992
vn -0.0356 0.9943 0.1005
vn -0.0369 0.9940 0.1033
vn -0.0393 0.9939 0.1028
vn -0.0414 0.9942 0.0993
vn -0.0419 0.9943 0.0984
vn -0.0404 0.9942 0.0995
vn -0.0385 0.9940 0.1019
vn -0.0370 0.9939 0.1041
vn -0.0413 0.9935 0.1056
vn -0.0371 0.9937 0.1061
vn -0.0479 0.9932 0.1059
vn -0.0627 0.9924 0.1062
vn -0.0932 0.9899 0.1071
vn -0.1065 0.9866 0.1240
vn -0.1579 0.9809 0.1133
vn -0.1351 0.9864 0.0941
vn -0.2042 0.9727 0.1101
vn -0.2577 0.9589 0.1187
vn -0.2864 0.9517 0.1104
vn -0.3389 0.9331 0.1207
vn -0.3752 0.9190 0.1213
vn -0.3952 0.9061 0.1510
vn 0.7054 0.3515 0.6155
vn 0.7105 0.3465 0.6124
vn 0.7039 0.3155 0.6364
vn 0.7090 0.3179 0.6295
vn 0.6899 0.2777 0.6685
vn 0.6902 0.2708 0.6710
vn 0.6753 0.2612 0.6898
vn 0.6695 0.2654 0.6938
vn 0.6357 0.2893 0.7157
vn 0.6291 0.2855 0.7230
vn 0.6070 0.3405 0.7180
vn 0.6149 0.3420 0.7106
vn 0.5747 0.3804 0.7246
vn 0.5639 0.3941 0.7258
vn 0.5302 0.4345 0.7281
vn 0.5253 0.4365 0.7304
vn 0.5015 0.4735 0.7241
vn 0.4992 0.4768 0.7235
vn 0.4767 0.4746 0.7400
vn 0.4785 0.4725 0.7401
vn 0.4758 0.4224 0.7714
vn 0.4783 0.4200 0.7713
vn 0.4534 0.4157 0.7884
vn 0.4540 0.4161 0.7879
vn 0.4205 0.4535 0.7858
vn 0.4214 0.4545 0.7848
vn 0.4127 0.4546 0.7893
vn 0.4231 0.6900 0.5872
vn 0.4177 0.6924 0.5882
vn 0.4167 0.6948 0.5861
vn 0.4124 0.6967 0.5870
vn 0.4133 0.6976 0.5852
vn 0.4054 0.6963 0.5923
vn 0.4039 0.6976 0.5918
vn 0.4021 0.6935 0.5978
vn 0.4023 0.6914 0.6001
vn 0.4042 0.6886 0.6020
vn 0.4043 0.6874 0.6033
vn 0.4043 0.6881 0.6026
vn 0.4042 0.6877 0.6031
vn 0.3994 0.6876 0.6064
vn 0.3985 0.6884 0.6060
vn 0.3923 0.6849 0.6140
vn 0.3940 0.6837 0.6142
vn 0.3857 0.6792 0.6244
vn 0.3865 0.6787 0.6245
vn 0.3714 0.6763 0.6361
vn 0.3710 0.6779 0.6347
vn 0.3495 0.6824 0.6420
vn 0.3457 0.6867 0.6395
vn 0.3422 0.6631 0.6658
vn 0.3452 0.6599 0.6674
vn 0.3288 0.6553 0.6801
vn 0.3167 0.6634 0.6779
vn 0.2861 0.6919 0.6629
vn 0.2768 0.7011 0.6571
vn 0.2927 0.7070 0.6438
vn 0.2848 0.7112 0.6428
vn 0.2832 0.7120 0.6425
vn 0.2863 0.7100 0.6433
vn 0.2898 0.7077 0.6444
vn 0.2935 0.7047 0.6460
vn 0.2959 0.7028 0.6470
vn -0.4214 0.4544 0.7848
vn -0.4204 0.4540 0.7856
vn -0.4127 0.4546 0.7893
vn -0.4540 0.4162 0.7878
vn -0.4533 0.4157 0.7884
vn -0.4781 0.4204 0.7712
vn -0.4758 0.4225 0.7714
vn -0.4785 0.4725 0.7401
vn -0.4767 0.4746 0.7400
vn -0.5015 0.4735 0.7241
vn -0.4991 0.4775 0.7231
vn -0.5303 0.4343 0.7281
vn -0.5254 0.4363 0.7305
vn -0.5639 0.3941 0.7258
vn -0.5747 0.3803 0.7246
vn -0.6070 0.3405 0.7180
vn -0.6149 0.3423 0.7104
vn -0.6357 0.2893 0.7157
vn -0.6291 0.2855 0.7230
vn -0.6695 0.2654 0.6938
vn -0.6753 0.2612 0.6898
vn -0.6899 0.2777 0.6685
vn -0.6902 0.2708 0.6710
vn -0.7039 0.3155 0.6364
vn -0.7089 0.3181 0.6295
vn -0.7105 0.3465 0.6124
vn -0.7054 0.3515 0.6155
vn 0.0568 0.9920 0.1131
vn 0.0387 0.9944 0.0987
vn 0.0453 0.9937 0.1022
vn 0.0323 0.9952 0.0925
vn 0.0366 0.9944 0.0987
vn 0.0373 0.9944 0.0991
vn 0.0356 0.9943 0.1006
vn 0.0369 0.9940 0.1033
vn 0.0393 0.9939 0.1028
vn 0.0414 0.9942 0.0993
vn 0.0419 0.9943 0.0984
vn 0.0404 0.9942 0.0995
vn 0.0385 0.9940 0.1019
vn 0.0370 0.9939 0.1041
vn 0.0412 0.9936 0.1056
vn 0.0371 0.9937 0.1061
vn 0.0478 0.9932 0.1059
vn 0.0626 0.9924 0.1063
vn 0.0932 0.9899 0.1072
vn 0.1066 0.9865 0.1240
vn 0.1579 0.9809 0.1133
vn 0.1351 0.9864 0.0941
vn 0.2042 0.9727 0.1101
vn 0.2577 0.9589 0.1187
vn 0.2864 0.9517 0.1104
vn 0.3389 0.9331 0.1207
vn 0.3752 0.9190 0.1213
vn 0.3952 0.9061 0.1510
vn -0.4175 0.6928 0.5880
vn -0.4231 0.6900 0.5872
vn -0.4218 0.6925 0.5853
vn -0.4167 0.6948 0.5861
vn -0.4124 0.6967 0.5870
vn -0.4135 0.6973 0.5855
vn -0.4054 0.6963 0.5923
vn -0.4039 0.6976 0.5918
vn -0.4021 0.6935 0.5978
vn -0.4023 0.6914 0.6001
vn -0.4041 0.6887 0.6020
vn -0.4043 0.6874 0.6033
vn -0.4042 0.6881 0.6026
vn -0.4040 0.6883 0.6025
vn -0.3994 0.6876 0.6064
vn -0.3985 0.6884 0.6060
vn -0.3923 0.6849 0.6140
vn -0.3940 0.6837 0.6142
vn -0.3857 0.6792 0.6244
vn -0.3865 0.6787 0.6245
vn -0.3714 0.6763 0.6361
vn -0.3710 0.6779 0.6347
vn -0.3495 0.6825 0.6419
vn -0.3456 0.6868 0.6394
vn -0.3421 0.6631 0.6657
vn -0.3451 0.6600 0.6673
vn -0.3288 0.6553 0.6801
vn -0.3167 0.6634 0.6779
vn -0.2861 0.6920 0.6628
vn -0.2767 0.7012 0.6571
vn -0.2927 0.7071 0.6437
vn -0.2850 0.7110 0.6428
vn -0.2831 0.7121 0.6425
vn -0.2863 0.7101 0.6433
vn -0.2897 0.7074 0.6447
vn -0.2935 0.7046 0.6460
vn -0.2959 0.7028 0.6470
vt 0.879668 0.767070
vt 0.915774 0.802122
vt 0.915371 0.800531
vt 0.861668 0.752681
vt 0.864116 0.769171
vt 0.867108 0.768512
vt 0.872210 0.769904
vt 0.869206 0.769987
vt 0.870799 0.778285
vt 0.872660 0.778058
vt 0.808069 0.703741
vt 0.818280 0.712916
vt 0.821187 0.698106
vt 0.834119 0.712355
vt 0.827754 0.722879
vt 0.836849 0.733975
vt 0.846676 0.729573
vt 0.845462 0.745464
vt 0.856166 0.743785
vt 0.854019 0.757343
vt 0.879453 0.773169
vt 0.886754 0.787831
vt 0.897001 0.785443
vt 0.922357 0.814604
vt 0.884226 0.780554
vt 0.840239 0.683105
vt 0.829940 0.690930
vt 0.842803 0.705536
vt 0.854320 0.698718
vt 0.856205 0.723844
vt 0.870600 0.719985
vt 0.867937 0.742880
vt 0.886517 0.743882
vt 0.900214 0.768911
vt 0.910502 0.789446
vt 0.926506 0.908296
vt 0.916602 0.905040
vt 0.926073 0.917271
vt 0.915437 0.893620
vt 0.926319 0.899112
vt 0.925082 0.888351
vt 0.912271 0.877933
vt 0.922051 0.875419
vt 0.906659 0.860873
vt 0.916525 0.857811
vt 0.910502 0.841456
vt 0.900774 0.844907
vt 0.895659 0.832281
vt 0.905519 0.828937
vt 0.888846 0.817230
vt 0.898657 0.813227
vt 0.892661 0.800545
vt 0.880966 0.801246
vt 0.913486 0.902345
vt 0.912517 0.892855
vt 0.910662 0.884427
vt 0.908329 0.875799
vt 0.905334 0.867422
vt 0.901903 0.858841
vt 0.896667 0.846739
vt 0.891140 0.834791
vt 0.883905 0.820347
vt 0.875652 0.805165
vt 0.865436 0.784867
vt 0.922849 0.919475
vt 0.976621 0.984714
vt 0.974233 0.987084
vt 0.922675 0.816047
vt 0.934020 0.837903
vt 0.946168 0.862649
vt 0.957718 0.887674
vt 0.967956 0.911107
vt 0.975865 0.930018
vt 0.982956 0.949226
vt 0.987690 0.964314
vt 0.988819 0.969194
vt 0.988971 0.974088
vt 0.987809 0.978271
vt 0.984985 0.982182
vt 0.981101 0.984162
vt 0.459561 0.549385
vt 0.499407 0.559229
vt 0.488940 0.581121
vt 0.493326 0.583850
vt 0.545563 0.572764
vt 0.516133 0.591370
vt 0.555506 0.603791
vt 0.595857 0.588983
vt 0.605671 0.619530
vt 0.641310 0.604879
vt 0.646291 0.632623
vt 0.680824 0.619631
vt 0.686834 0.646046
vt 0.708656 0.630428
vt 0.729468 0.638965
vt 0.715197 0.656041
vt 0.735906 0.663819
vt 0.745414 0.645888
vt 0.751852 0.670169
vt 0.761098 0.653497
vt 0.775081 0.661303
vt 0.767140 0.677163
vt 0.778016 0.682818
vt 0.788476 0.670071
vt 0.788508 0.689123
vt 0.799281 0.678518
vt 0.798546 0.696120
vt 0.809639 0.687226
vt 0.821186 0.698107
vt 0.808066 0.703740
vt 0.827292 0.671069
vt 0.840240 0.683105
vt 0.829939 0.690931
vt 0.818533 0.679566
vt 0.814582 0.660972
vt 0.807433 0.669596
vt 0.795471 0.659999
vt 0.801666 0.651974
vt 0.788067 0.643502
vt 0.781877 0.650447
vt 0.772926 0.634768
vt 0.767626 0.641795
vt 0.751571 0.633292
vt 0.757524 0.626490
vt 0.740177 0.617748
vt 0.735190 0.625464
vt 0.718854 0.607805
vt 0.714621 0.616083
vt 0.687077 0.604157
vt 0.689634 0.595476
vt 0.649852 0.580547
vt 0.647480 0.587875
vt 0.603779 0.564578
vt 0.602104 0.570377
vt 0.554061 0.548457
vt 0.553115 0.552022
vt 0.506255 0.534147
vt 0.505960 0.535881
vt 0.472284 0.525405
vt 0.448397 0.521481
vt 0.434990 0.520025
vt 0.429657 0.519524
vt 0.426057 0.519651
vt 0.423263 0.520643
vt 0.421575 0.522301
vt 0.421224 0.523193
s 1
f 1/1/1 3/2/1 2/3/1
f 4/4/2 6/5/3 5/6/2
f 7/7/4 9/8/5 8/9/6
f 8/9/6 10/10/7 7/7/4
f 11/11/8 13/12/9 12/13/10
f 13/12/9 14/14/11 12/13/10
f 13/12/9 15/15/12 14/14/11
f 14/14/11 15/15/12 16/16/13
f 16/16/13 17/17/14 14/14/11
f 17/17/14 16/16/13 18/18/15
f 18/18/15 19/19/16 17/17/14
f 19/19/16 18/18/15 20/20/17
f 21/4/18 19/19/16 20/20/17
f 20/20/17 22/5/19 21/4/18
f 23/21/20 25/10/21 24/22/22
f 24/22/22 26/23/23 23/21/20
f 27/24/23 26/23/23 24/22/22
f 28/1/24 30/4/25 29/6/26
f 29/6/26 31/25/27 28/1/24
f 28/1/24 31/25/27 32/2/27
f 33/26/28 35/27/29 34/28/30
f 34/28/30 36/29/31 33/26/28
f 36/29/31 34/28/30 37/30/32
f 37/30/32 38/31/33 36/29/31
f 38/31/33 37/30/32 39/32/34
f 39/32/34 40/33/35 38/31/33
f 40/33/35 39/32/34 41/1/36
f 41/1/36 42/34/37 40/33/35
f 43/35/38 42/34/37 41/1/36
f 41/1/36 44/3/39 43/35/38
f 45/4/40 47/1/41 46/32/42
f 46/32/42 48/19/43 45/4/40
f 48/19/43 46/32/42 49/30/44
f 49/30/44 50/17/45 48/19/43
f 50/17/45 49/30/44 51/28/46
f 51/28/46 52/14/47 50/17/45
f 53/13/48 52/14/47 51/28/46
f 51/28/46 54/27/49 53/13/48
f 55/36/50 57/37/51 56/38/52
f 58/39/53 57/37/51 55/36/50
f 55/36/50 59/40/54 58/39/53
f 60/41/55 58/39/53 59/40/54
f 61/42/56 58/39/53 60/41/55
f 60/41/55 62/43/57 61/42/56
f 63/44/58 61/42/56 62/43/57
f 62/43/57 64/45/59 63/44/58
f 63/44/58 64/45/59 65/46/60
f 65/46/60 66/47/61 63/44/58
f 67/48/62 66/47/61 65/46/60
f 65/46/60 68/49/63 67/48/62
f 69/50/64 67/48/62 68/49/63
f 68/49/63 70/51/65 69/50/64
f 69/50/64 70/51/65 71/52/66
f 71/52/66 72/53/67 69/50/64
f 73/9/68 72/53/67 71/52/66
f 73/9/68 71/52/66 74/10/69
f 71/52/66 75/22/70 74/10/69
f 76/54/71 78/37/72 77/39/73
f 77/39/73 79/55/74 76/54/71
f 80/56/75 79/55/74 77/39/73
f 77/39/73 81/42/76 80/56/75
f 80/56/75 81/42/76 82/57/77
f 82/57/77 81/42/76 83/44/78
f 83/44/78 84/58/79 82/57/77
f 85/59/80 84/58/79 83/44/78
f 86/60/81 85/59/80 83/44/78
f 83/44/78 87/47/82 86/60/81
f 88/61/83 86/60/81 87/47/82
f 87/47/82 89/48/84 88/61/83
f 88/61/83 89/48/84 90/50/85
f 90/50/85 91/62/86 88/61/83
f 92/63/87 91/62/86 90/50/85
f 90/50/85 93/53/88 92/63/87
f 92/63/87 93/53/88 94/9/89
f 94/9/89 95/64/90 92/63/87
f 96/37/91 98/54/92 97/65/93
f 97/65/93 99/38/94 96/37/91
f 100/66/95 99/38/94 97/65/93
f 97/65/93 101/67/96 100/66/95
f 102/22/97 104/68/98 103/24/99
f 102/22/97 105/52/100 104/68/98
f 105/52/100 106/51/101 104/68/98
f 106/51/101 107/49/102 104/68/98
f 108/69/103 104/68/98 107/49/102
f 107/49/102 109/46/104 108/69/103
f 110/70/105 108/69/103 109/46/104
f 109/46/104 111/45/106 110/70/105
f 111/45/106 112/43/107 110/70/105
f 113/71/108 110/70/105 112/43/107
f 112/43/107 114/41/109 113/71/108
f 115/72/110 113/71/108 114/41/109
f 114/41/109 116/40/111 115/72/110
f 117/73/112 115/72/110 116/40/111
f 116/40/111 118/36/113 117/73/112
f 117/73/112 118/36/113 119/38/114
f 119/38/114 120/74/115 117/73/112
f 119/38/114 121/75/116 120/74/115
f 119/38/114 122/76/117 121/75/116
f 119/38/114 123/77/118 122/76/117
f 124/78/119 123/77/118 119/38/114
f 125/79/120 124/78/119 119/38/114
f 126/80/121 125/79/120 119/38/114
f 127/66/122 126/80/121 119/38/114
f 128/4/123 130/6/124 129/5/123
f 131/1/125 133/3/125 132/2/125
f 134/7/126 136/10/127 135/9/128
f 135/9/128 137/8/129 134/7/126
f 138/24/130 140/22/131 139/23/130
f 141/21/132 139/23/130 140/22/131
f 140/22/131 142/10/133 141/21/132
f 143/11/134 145/13/135 144/12/136
f 144/12/136 145/13/135 146/14/137
f 144/12/136 146/14/137 147/15/138
f 148/16/139 147/15/138 146/14/137
f 146/14/137 149/17/140 148/16/139
f 150/18/141 148/16/139 149/17/140
f 149/17/140 151/19/142 150/18/141
f 151/19/142 152/20/143 150/18/141
f 152/20/143 151/19/142 153/4/144
f 153/4/144 154/5/145 152/20/143
f 155/6/146 157/4/147 156/1/148
f 156/1/148 158/25/149 155/6/146
f 156/1/148 159/2/149 158/25/149
f 160/36/150 162/38/151 161/37/152
f 160/36/150 161/37/152 163/39/153
f 163/39/153 164/40/154 160/36/150
f 165/41/155 164/40/154 163/39/153
f 165/41/155 163/39/153 166/42/156
f 166/42/156 167/43/157 165/41/155
f 167/43/157 166/42/156 168/44/158
f 168/44/158 169/45/159 167/43/157
f 170/46/160 169/45/159 168/44/158
f 168/44/158 171/47/161 170/46/160
f 170/46/160 171/47/161 172/48/162
f 172/48/162 173/49/163 170/46/160
f 173/49/163 172/48/162 174/50/164
f 174/50/164 175/51/165 173/49/163
f 176/52/166 175/51/165 174/50/164
f 174/50/164 177/53/167 176/52/166
f 178/9/168 176/52/166 177/53/167
f 178/9/168 179/10/169 176/52/166
f 179/10/169 180/22/170 176/52/166
f 181/28/171 183/27/172 182/26/173
f 182/26/173 184/29/174 181/28/171
f 185/30/175 181/28/171 184/29/174
f 184/29/174 186/31/176 185/30/175
f 187/32/177 185/30/175 186/31/176
f 186/31/176 188/33/178 187/32/177
f 189/1/179 187/32/177 188/33/178
f 188/33/178 190/34/180 189/1/179
f 189/1/179 190/34/180 191/35/181
f 191/35/181 192/3/182 189/1/179
f 193/32/183 195/1/184 194/4/185
f 194/4/185 196/19/186 193/32/183
f 197/30/187 193/32/183 196/19/186
f 196/19/186 198/17/188 197/30/187
f 199/28/189 197/30/187 198/17/188
f 198/17/188 200/14/190 199/28/189
f 199/28/189 200/14/190 201/13/191
f 201/13/191 202/27/192 199/28/189
f 203/65/193 205/54/194 204/37/195
f 204/37/195 206/38/196 203/65/193
f 203/65/193 206/38/196 207/66/197
f 207/66/197 208/67/198 203/65/193
f 209/39/199 211/37/200 210/54/201
f 210/54/201 212/55/202 209/39/199
f 209/39/199 212/55/202 213/56/203
f 213/56/203 214/42/204 209/39/199
f 213/56/203 215/57/205 214/42/204
f 216/44/206 214/42/204 215/57/205
f 215/57/205 217/58/207 216/44/206
f 218/59/208 216/44/206 217/58/207
f 216/44/206 218/59/208 219/60/209
f 219/60/209 220/47/210 216/44/206
f 220/47/210 219/60/209 221/61/211
f 221/61/211 222/48/212 220/47/210
f 223/50/213 222/48/212 221/61/211
f 221/61/211 224/62/214 223/50/213
f 223/50/213 224/62/214 225/63/215
f 225/63/215 226/53/216 223/50/213
f 227/9/217 226/53/216 225/63/215
f 225/63/215 228/64/218 227/9/217
f 229/22/219 231/24/220 230/68/221
f 229/22/219 230/68/221 232/52/222
f 232/52/222 230/68/221 233/51/223
f 233/51/223 230/68/221 234/49/224
f 234/49/224 230/68/221 235/69/225
f 235/69/225 236/46/226 234/49/224
f 236/46/226 235/69/225 237/70/227
f 237/70/227 238/45/228 236/46/226
f 238/45/228 237/70/227 239/43/229
f 239/43/229 237/70/227 240/71/230
f 240/71/230 241/41/231 239/43/229
f 241/41/231 240/71/230 242/72/232
f 242/72/232 243/40/233 241/41/231
f 243/40/233 242/72/232 244/73/234
f 244/73/234 245/36/235 243/40/233
f 246/38/236 245/36/235 244/73/234
f 244/73/234 247/74/237 246/38/236
f 246/38/236 247/74/237 248/75/238
f 246/38/236 248/75/238 249/76/239
f 246/38/236 249/76/239 250/77/240
f 251/78/241 246/38/236 250/77/240
f 252/79/242 246/38/236 251/78/241
f 253/80/243 246/38/236 252/79/242
f 254/66/244 246/38/236 253/80/243
f 255/81/245 257/82/246 256/83/247
f 257/82/246 258/84/248 256/83/247
f 258/84/248 257/82/246 259/85/249
f 259/85/249 260/86/250 258/84/248
f 261/87/251 260/86/250 259/85/249
f 262/88/252 261/87/251 259/85/249
f 262/88/252 263/89/253 261/87/251
f 263/89/253 262/88/252 264/90/254
f 264/90/254 265/91/255 263/89/253
f 265/91/255 264/90/254 266/92/256
f 266/92/256 267/93/257 265/91/255
f 268/94/258 267/93/257 266/92/256
f 267/93/257 268/94/258 269/95/259
f 269/95/259 270/96/260 267/93/257
f 271/97/261 270/96/260 269/95/259
f 269/95/259 272/98/262 271/97/261
f 273/99/263 271/97/261 272/98/262
f 272/98/262 274/100/264 273/99/263
f 273/99/263 274/100/264 275/101/265
f 275/101/265 276/102/266 273/99/263
f 277/103/267 276/102/266 275/101/265
f 275/101/265 278/104/268 277/103/267
f 279/105/269 277/103/267 278/104/268
f 278/104/268 280/106/270 279/105/269
f 281/107/271 279/105/269 280/106/270
f 280/106/270 282/108/272 281/107/271
f 281/107/271 282/108/272 283/109/135
f 283/109/135 284/110/134 281/107/271
f 285/111/273 287/112/173 286/113/172
f 286/113/172 288/114/274 285/111/273
f 289/115/275 285/111/273 288/114/274
f 288/114/274 290/116/276 289/115/275
f 289/115/275 290/116/276 291/117/277
f 291/117/277 292/118/278 289/115/275
f 293/119/279 292/118/278 291/117/277
f 291/117/277 294/120/280 293/119/279
f 295/121/281 293/119/279 294/120/280
f 294/120/280 296/122/282 295/121/281
f 295/121/281 296/122/282 297/123/283
f 297/123/283 298/124/284 295/121/281
f 299/125/285 298/124/284 297/123/283
f 297/123/283 300/126/286 299/125/285
f 301/127/287 299/125/285 300/126/286
f 300/126/286 302/128/288 301/127/287
f 301/127/287 302/128/288 303/129/289
f 303/129/289 304/130/290 301/127/287
f 305/131/291 304/130/290 303/129/289
f 303/129/289 306/132/292 305/131/291
f 307/133/293 305/131/291 306/132/292
f 306/132/292 308/134/294 307/133/293
f 309/135/295 307/133/293 308/134/294
f 308/134/294 310/136/296 309/135/295
f 311/137/297 309/135/295 310/136/296
f 310/136/296 312/138/298 311/137/297
f 312/138/298 313/139/299 311/137/297
f 314/113/192 316/109/300 315/108/301
f 315/108/301 317/114/302 314/113/192
f 317/114/302 315/108/301 318/106/303
f 318/106/303 319/116/304 317/114/302
f 320/117/305 319/116/304 318/106/303
f 318/106/303 321/104/306 320/117/305
f 320/117/305 321/104/306 322/101/307
f 322/101/307 323/120/308 320/117/305
f 323/120/308 322/101/307 324/100/309
f 324/100/309 325/122/310 323/120/308
f 326/123/311 325/122/310 324/100/309
f 324/100/309 327/98/312 326/123/311
f 326/123/311 327/98/312 328/95/313
f 328/95/313 329/126/314 326/123/311
f 330/128/315 329/126/314 328/95/313
f 328/95/313 331/94/316 330/128/315
f 332/129/317 330/128/315 331/94/316
f 331/94/316 333/92/318 332/129/317
f 332/129/317 333/92/318 334/90/319
f 334/90/319 335/132/320 332/129/317
f 335/132/320 334/90/319 336/88/321
f 336/88/321 337/134/322 335/132/320
f 338/136/323 337/134/322 336/88/321
f 336/88/321 339/85/324 338/136/323
f 340/138/325 338/136/323 339/85/324
f 339/85/324 341/82/326 340/138/325
f 342/139/327 340/138/325 341/82/326
f 341/82/326 343/81/328 342/139/327
f 343/81/328 344/140/329 342/139/327
f 343/81/328 345/141/330 344/140/329
f 343/81/328 346/142/331 345/141/330
f 343/81/328 347/143/332 346/142/331
f 343/81/328 348/144/333 347/143/332
f 343/81/328 349/145/334 348/144/333
f 343/81/328 350/146/335 349/145/334
f 351/138/336 353/137/337 352/139/338
f 353/137/337 351/138/336 354/136/339
f 354/136/339 355/135/340 353/137/337
f 355/135/340 354/136/339 356/134/341
f 356/134/341 357/133/342 355/135/340
f 357/133/342 356/134/341 358/132/343
f 358/132/343 359/131/344 357/133/342
f 359/131/344 358/132/343 360/129/345
f 360/129/345 361/130/346 359/131/344
f 362/127/347 361/130/346 360/129/345
f 360/129/345 363/128/348 362/127/347
f 362/127/347 363/128/348 364/126/349
f 364/126/349 365/125/350 362/127/347
f 365/125/350 364/126/349 366/123/351
f 366/123/351 367/124/352 365/125/350
f 368/121/353 367/124/352 366/123/351
f 366/123/351 369/122/354 368/121/353
f 368/121/353 369/122/354 370/120/355
f 370/120/355 371/119/356 368/121/353
f 371/119/356 370/120/355 372/117/357
f 372/117/357 373/118/358 371/119/356
f 374/115/359 373/118/358 372/117/357
f 372/117/357 375/116/360 374/115/359
f 374/115/359 375/116/360 376/114/361
f 376/114/361 377/111/362 374/115/359
f 377/111/362 376/114/361 378/113/29
f 378/113/29 379/112/28 377/111/362
f 380/81/363 382/83/364 381/82/365
f 381/82/365 382/83/364 383/84/366
f 384/85/367 381/82/365 383/84/366
f 383/84/366 385/86/368 384/85/367
f 386/87/369 384/85/367 385/86/368
f 387/88/370 384/85/367 386/87/369
f 387/88/370 386/87/369 388/89/371
f 389/90/372 387/88/370 388/89/371
f 388/89/371 390/91/373 389/90/372
f 391/92/374 389/90/372 390/91/373
f 390/91/373 392/93/375 391/92/374
f 393/94/376 391/92/374 392/93/375
f 394/95/377 393/94/376 392/93/375
f 392/93/375 395/96/378 394/95/377
f 394/95/377 395/96/378 396/97/379
f 396/97/379 397/98/380 394/95/377
f 397/98/380 396/97/379 398/99/381
f 398/99/381 399/100/382 397/98/380
f 400/101/383 399/100/382 398/99/381
f 398/99/381 401/102/384 400/101/383
f 400/101/383 401/102/384 402/103/385
f 402/103/385 403/104/386 400/101/383
f 403/104/386 402/103/385 404/105/387
f 404/105/387 405/106/388 403/104/386
f 405/106/388 404/105/387 406/107/389
f 406/107/389 407/108/390 405/106/388
f 408/109/10 407/108/390 406/107/389
f 406/107/389 409/110/8 408/109/10
f 410/108/391 412/109/392 411/113/393
f 411/113/393 413/114/394 410/108/391
f 414/106/395 410/108/391 413/114/394
f 413/114/394 415/116/396 414/106/395
f 414/106/395 415/116/396 416/117/397
f 416/117/397 417/104/398 414/106/395
f 418/101/399 417/104/398 416/117/397
f 416/117/397 419/120/400 418/101/399
f 420/100/401 418/101/399 419/120/400
f 419/120/400 421/122/402 420/100/401
f 420/100/401 421/122/402 422/123/403
f 422/123/403 423/98/404 420/100/401
f 424/95/405 423/98/404 422/123/403
f 422/123/403 425/126/406 424/95/405
f 424/95/405 425/126/406 426/128/407
f 426/128/407 427/94/408 424/95/405
f 427/94/408 426/128/407 428/129/409
f 428/129/409 429/92/410 427/94/408
f 430/90/411 429/92/410 428/129/409
f 428/129/409 431/132/412 430/90/411
f 432/88/413 430/90/411 431/132/412
f 431/132/412 433/134/414 432/88/413
f 432/88/413 433/134/414 434/136/415
f 434/136/415 435/85/416 432/88/413
f 435/85/416 434/136/415 436/138/417
f 436/138/417 437/82/418 435/85/416
f 437/82/418 436/138/417 438/139/419
f 438/139/419 439/81/420 437/82/418
f 439/81/420 438/139/419 440/140/421
f 439/81/420 440/140/421 441/141/422
f 439/81/420 441/141/422 442/142/423
f 439/81/420 442/142/423 443/143/424
f 439/81/420 443/143/424 444/144/425
f 439/81/420 444/144/425 445/145/426
f 439/81/420 445/145/426 446/146/427
