# Blender 5.2.2 LTS
# www.blender.org
mtllib FHigh_Beam.mtl
o headlightR_a_LODS0_chrome
v -0.529824 -0.107100 1.783254
v -0.530395 -0.103871 1.786770
v -0.528358 -0.105855 1.783285
v -0.527161 -0.104319 1.783315
v -0.531419 -0.104725 1.786740
v -0.531493 -0.107859 1.783104
v -0.529556 -0.102818 1.786785
v -0.526266 -0.102575 1.783337
v -0.532587 -0.105351 1.786710
v -0.533307 -0.108440 1.783081
v -0.528930 -0.101612 1.786800
v -0.525715 -0.100683 1.783345
v -0.533849 -0.105721 1.786680
v -0.528547 -0.100295 1.786815
v -0.525511 -0.098723 1.783367
v -0.535165 -0.105828 1.786649
v -0.535185 -0.108657 1.783029
v -0.528418 -0.098922 1.786815
v -0.536477 -0.105665 1.786612
v -0.537063 -0.108639 1.783074
v -0.535141 -0.098798 1.788336
v -0.537739 -0.105238 1.786582
v -0.538867 -0.108079 1.783014
v -0.540527 -0.107171 1.782991
v -0.538902 -0.104565 1.786559
v -0.539920 -0.103672 1.786529
v -0.541992 -0.105959 1.782946
v -0.543165 -0.104455 1.782916
v -0.540750 -0.102593 1.786514
v -0.544050 -0.102744 1.782893
v -0.541366 -0.101371 1.786491
v -0.544586 -0.100888 1.782878
v -0.541744 -0.100049 1.786484
v -0.544770 -0.098958 1.782886
v -0.541863 -0.098682 1.786484
v -0.541729 -0.097318 1.786484
v -0.544566 -0.097021 1.782856
v -0.544005 -0.095150 1.782878
v -0.541337 -0.096010 1.786499
v -0.543100 -0.093416 1.782901
v -0.540711 -0.094809 1.786514
v -0.539871 -0.093760 1.786536
v -0.541913 -0.091883 1.782923
v -0.540437 -0.090631 1.782961
v -0.538852 -0.092903 1.786559
v -0.538773 -0.089682 1.783006
v -0.537690 -0.092271 1.786589
v -0.536427 -0.091889 1.786619
v -0.536969 -0.089075 1.783029
v -0.535096 -0.088840 1.783096
v -0.535116 -0.091770 1.786649
v -0.533809 -0.091924 1.786687
v -0.533228 -0.089006 1.783126
v -0.531429 -0.089549 1.783187
v -0.532552 -0.092342 1.786717
v -0.531389 -0.093009 1.786747
v -0.529769 -0.090444 1.783232
v -0.530375 -0.093902 1.786770
v -0.528313 -0.091654 1.783270
v -0.529541 -0.094981 1.786792
v -0.527131 -0.093164 1.783307
v -0.528925 -0.096212 1.786807
v -0.526246 -0.094889 1.783330
v -0.528542 -0.097543 1.786815
v -0.525705 -0.096766 1.783330
v 0.541729 -0.097318 1.786484
v 0.544005 -0.095150 1.782878
v 0.544566 -0.097021 1.782856
v 0.544770 -0.098958 1.782886
v 0.541863 -0.098682 1.786484
v 0.541337 -0.096010 1.786499
v 0.543100 -0.093416 1.782901
v 0.541744 -0.100049 1.786484
v 0.544586 -0.100888 1.782878
v 0.540711 -0.094809 1.786514
v 0.541366 -0.101371 1.786491
v 0.544050 -0.102744 1.782893
v 0.535141 -0.098798 1.788336
v 0.539871 -0.093760 1.786536
v 0.541913 -0.091883 1.782923
v 0.540437 -0.090631 1.782961
v 0.540750 -0.102593 1.786514
v 0.543165 -0.104455 1.782916
v 0.538852 -0.092903 1.786559
v 0.538773 -0.089682 1.783006
v 0.537690 -0.092271 1.786589
v 0.536427 -0.091889 1.786619
v 0.536969 -0.089075 1.783029
v 0.535096 -0.088840 1.783096
v 0.535116 -0.091770 1.786649
v 0.533809 -0.091924 1.786687
v 0.533228 -0.089006 1.783126
v 0.531429 -0.089549 1.783187
v 0.532552 -0.092342 1.786717
v 0.531389 -0.093009 1.786747
v 0.529769 -0.090444 1.783232
v 0.530375 -0.093902 1.786770
v 0.528313 -0.091654 1.783270
v 0.529541 -0.094981 1.786792
v 0.527131 -0.093164 1.783307
v 0.528925 -0.096212 1.786807
v 0.526246 -0.094889 1.783330
v 0.528542 -0.097543 1.786815
v 0.525705 -0.096766 1.783330
v 0.525511 -0.098723 1.783367
v 0.528418 -0.098922 1.786815
v 0.528547 -0.100295 1.786815
v 0.525715 -0.100683 1.783345
v 0.528930 -0.101612 1.786800
v 0.526266 -0.102572 1.783337
v 0.529556 -0.102818 1.786785
v 0.527161 -0.104319 1.783315
v 0.530395 -0.103871 1.786770
v 0.528358 -0.105855 1.783285
v 0.529824 -0.107100 1.783254
v 0.531419 -0.104725 1.786740
v 0.531493 -0.107859 1.783104
v 0.532587 -0.105351 1.786710
v 0.533307 -0.108440 1.783081
v 0.533849 -0.105721 1.786680
v 0.535165 -0.105828 1.786649
v 0.535185 -0.108657 1.783029
v 0.536477 -0.105665 1.786612
v 0.537063 -0.108639 1.783074
v 0.537739 -0.105238 1.786582
v 0.538867 -0.108079 1.783014
v 0.540527 -0.107171 1.782991
v 0.538902 -0.104565 1.786559
v 0.539920 -0.103672 1.786529
v 0.541992 -0.105959 1.782946
vn 0.3861 -0.6715 0.6325
vn 0.5511 -0.5438 0.6329
vn 0.3771 -0.3876 0.8411
vn 0.6483 -0.4247 0.6320
vn 0.2864 -0.4658 0.8372
vn 0.2647 -0.7454 0.6118
vn 0.4476 -0.3043 0.8409
vn 0.7174 -0.2904 0.6332
vn 0.1952 -0.5218 0.8304
vn 0.1497 -0.7780 0.6102
vn 0.4980 -0.2085 0.8417
vn 0.7569 -0.1524 0.6355
vn 0.0823 -0.5515 0.8301
vn 0.5265 -0.1072 0.8434
vn 0.7671 0.0033 0.6415
vn -0.0302 -0.5572 0.8298
vn 0.0295 -0.7784 0.6270
vn 0.5330 -0.0023 0.8461
vn -0.1334 -0.5305 0.8371
vn -0.1231 -0.7485 0.6516
vn -0.0233 0.0007 0.9997
vn -0.2382 -0.4857 0.8410
vn -0.3102 -0.6936 0.6501
vn -0.4378 -0.6194 0.6517
vn -0.3307 -0.4307 0.8397
vn -0.4073 -0.3640 0.8376
vn -0.5512 -0.5208 0.6519
vn -0.6478 -0.4052 0.6451
vn -0.4712 -0.2827 0.8355
vn -0.7161 -0.2801 0.6393
vn -0.5194 -0.1933 0.8324
vn -0.7605 -0.1456 0.6328
vn -0.5497 -0.0972 0.8297
vn -0.7802 0.0045 0.6256
vn -0.5613 0.0047 0.8276
vn -0.5563 0.1079 0.8239
vn -0.7729 0.1536 0.6157
vn -0.7366 0.2892 0.6114
vn -0.5297 0.2079 0.8223
vn -0.6724 0.4212 0.6087
vn -0.4825 0.3028 0.8219
vn -0.4158 0.3862 0.8234
vn -0.5804 0.5400 0.6096
vn -0.4647 0.6420 0.6098
vn -0.3316 0.4559 0.8260
vn -0.3294 0.7152 0.6165
vn -0.2324 0.5085 0.8291
vn -0.1287 0.5373 0.8335
vn -0.1893 0.7587 0.6234
vn -0.0261 0.7726 0.6343
vn -0.0132 0.5446 0.8386
vn 0.0939 0.5305 0.8424
vn 0.1290 0.7563 0.6414
vn 0.2775 0.7088 0.6485
vn 0.2019 0.4944 0.8454
vn 0.2956 0.4422 0.8468
vn 0.4108 0.6332 0.6560
vn 0.3759 0.3724 0.8485
vn 0.5303 0.5352 0.6575
vn 0.4422 0.2906 0.8485
vn 0.6301 0.4176 0.6547
vn 0.4916 0.1985 0.8479
vn 0.7036 0.2862 0.6505
vn 0.5226 0.1008 0.8466
vn 0.7496 0.1518 0.6442
vn 0.5563 0.1079 0.8239
vn 0.7728 0.1536 0.6158
vn 0.7366 0.2892 0.6114
vn 0.7802 0.0046 0.6255
vn 0.5615 0.0046 0.8274
vn 0.5297 0.2079 0.8223
vn 0.6724 0.4211 0.6088
vn 0.5498 -0.0970 0.8297
vn 0.7606 -0.1454 0.6327
vn 0.4825 0.3028 0.8219
vn 0.5194 -0.1932 0.8324
vn 0.7161 -0.2801 0.6393
vn 0.0233 0.0007 0.9997
vn 0.4157 0.3863 0.8234
vn 0.5804 0.5400 0.6096
vn 0.4649 0.6419 0.6098
vn 0.4711 -0.2825 0.8356
vn 0.6478 -0.4053 0.6451
vn 0.3314 0.4563 0.8258
vn 0.3294 0.7152 0.6165
vn 0.2324 0.5085 0.8291
vn 0.1284 0.5373 0.8336
vn 0.1895 0.7586 0.6234
vn 0.0262 0.7726 0.6343
vn 0.0132 0.5447 0.8385
vn -0.0945 0.5308 0.8422
vn -0.1289 0.7563 0.6414
vn -0.2774 0.7087 0.6487
vn -0.2019 0.4944 0.8454
vn -0.2956 0.4422 0.8468
vn -0.4108 0.6332 0.6560
vn -0.3759 0.3724 0.8485
vn -0.5305 0.5350 0.6576
vn -0.4425 0.2903 0.8485
vn -0.6301 0.4176 0.6547
vn -0.4918 0.1989 0.8477
vn -0.7036 0.2862 0.6505
vn -0.5226 0.1010 0.8466
vn -0.7496 0.1523 0.6442
vn -0.7671 0.0034 0.6415
vn -0.5336 -0.0024 0.8458
vn -0.5265 -0.1072 0.8434
vn -0.7568 -0.1519 0.6358
vn -0.4980 -0.2086 0.8417
vn -0.7176 -0.2903 0.6331
vn -0.4476 -0.3042 0.8409
vn -0.6484 -0.4244 0.6320
vn -0.3771 -0.3876 0.8412
vn -0.5512 -0.5438 0.6328
vn -0.3862 -0.6715 0.6325
vn -0.2864 -0.4658 0.8372
vn -0.2647 -0.7454 0.6118
vn -0.1958 -0.5220 0.8302
vn -0.1497 -0.7780 0.6102
vn -0.0823 -0.5515 0.8301
vn 0.0302 -0.5572 0.8298
vn -0.0296 -0.7784 0.6271
vn 0.1335 -0.5304 0.8371
vn 0.1230 -0.7485 0.6516
vn 0.2382 -0.4857 0.8410
vn 0.3102 -0.6936 0.6501
vn 0.4376 -0.6196 0.6516
vn 0.3306 -0.4307 0.8398
vn 0.4073 -0.3640 0.8376
vn 0.5512 -0.5208 0.6519
vt 0.278276 0.152810
vt 0.214169 0.203658
vt 0.331606 0.327046
vt 0.160740 0.267978
vt 0.366965 0.297739
vt 0.347401 0.117922
vt 0.302660 0.363335
vt 0.121586 0.342577
vt 0.407231 0.276463
vt 0.424139 0.096444
vt 0.280142 0.404561
vt 0.097857 0.423097
vt 0.450748 0.263710
vt 0.266090 0.449954
vt 0.090330 0.506358
vt 0.495958 0.259922
vt 0.502484 0.089626
vt 0.261047 0.497582
vt 0.541279 0.265188
vt 0.579518 0.097025
vt 0.493078 0.502280
vt 0.585055 0.279469
vt 0.653216 0.120271
vt 0.720981 0.157293
vt 0.625111 0.302942
vt 0.660224 0.333915
vt 0.781653 0.206650
vt 0.831114 0.267776
vt 0.689008 0.371265
vt 0.868711 0.337993
vt 0.710291 0.413640
vt 0.892230 0.414688
vt 0.723231 0.459399
vt 0.900288 0.494931
vt 0.727297 0.506775
vt 0.722353 0.553923
vt 0.893787 0.575717
vt 0.870602 0.653788
vt 0.708635 0.599000
vt 0.833376 0.726277
vt 0.686734 0.640315
vt 0.657529 0.676314
vt 0.783679 0.790143
vt 0.722094 0.842582
vt 0.622194 0.705645
vt 0.652536 0.882053
vt 0.582064 0.727262
vt 0.538634 0.740394
vt 0.577195 0.907749
vt 0.498763 0.917118
vt 0.493498 0.744510
vt 0.448326 0.739422
vt 0.420357 0.911272
vt 0.344682 0.888884
vt 0.404772 0.725242
vt 0.364518 0.702438
vt 0.274469 0.852355
vt 0.329097 0.671768
vt 0.212525 0.802429
vt 0.299991 0.634393
vt 0.161333 0.739977
vt 0.278399 0.591740
vt 0.122723 0.667917
vt 0.265225 0.545513
vt 0.098178 0.589151
s 1
f 1/1/1 3/2/2 2/3/3
f 2/3/3 3/2/2 4/4/4
f 2/3/3 5/5/5 1/1/1
f 6/6/6 1/1/1 5/5/5
f 4/4/4 7/7/7 2/3/3
f 7/7/7 4/4/4 8/8/8
f 5/5/5 9/9/9 6/6/6
f 10/10/10 6/6/6 9/9/9
f 8/8/8 11/11/11 7/7/7
f 11/11/11 8/8/8 12/12/12
f 9/9/9 13/13/13 10/10/10
f 12/12/12 14/14/14 11/11/11
f 14/14/14 12/12/12 15/15/15
f 10/10/10 13/13/13 16/16/16
f 16/16/16 17/17/17 10/10/10
f 15/15/15 18/18/18 14/14/14
f 17/17/17 16/16/16 19/19/19
f 19/19/19 20/20/20 17/17/17
f 11/11/11 14/14/14 21/21/21
f 21/21/21 7/7/7 11/11/11
f 14/14/14 18/18/18 21/21/21
f 2/3/3 7/7/7 21/21/21
f 5/5/5 2/3/3 21/21/21
f 5/5/5 21/21/21 9/9/9
f 13/13/13 9/9/9 21/21/21
f 13/13/13 21/21/21 16/16/16
f 19/19/19 16/16/16 21/21/21
f 20/20/20 19/19/19 22/22/22
f 22/22/22 23/23/23 20/20/20
f 22/22/22 19/19/19 21/21/21
f 24/24/24 23/23/23 22/22/22
f 22/22/22 25/25/25 24/24/24
f 22/22/22 21/21/21 25/25/25
f 24/24/24 25/25/25 26/26/26
f 26/26/26 27/27/27 24/24/24
f 26/26/26 25/25/25 21/21/21
f 28/28/28 27/27/27 26/26/26
f 26/26/26 29/29/29 28/28/28
f 21/21/21 29/29/29 26/26/26
f 30/30/30 28/28/28 29/29/29
f 29/29/29 31/31/31 30/30/30
f 29/29/29 21/21/21 31/31/31
f 32/32/32 30/30/30 31/31/31
f 31/31/31 33/33/33 32/32/32
f 21/21/21 33/33/33 31/31/31
f 34/34/34 32/32/32 33/33/33
f 33/33/33 35/35/35 34/34/34
f 33/33/33 21/21/21 35/35/35
f 34/34/34 35/35/35 36/36/36
f 36/36/36 37/37/37 34/34/34
f 21/21/21 36/36/36 35/35/35
f 38/38/38 37/37/37 36/36/36
f 36/36/36 39/39/39 38/38/38
f 36/36/36 21/21/21 39/39/39
f 40/40/40 38/38/38 39/39/39
f 39/39/39 41/41/41 40/40/40
f 21/21/21 41/41/41 39/39/39
f 40/40/40 41/41/41 42/42/42
f 42/42/42 43/43/43 40/40/40
f 44/44/44 43/43/43 42/42/42
f 42/42/42 41/41/41 21/21/21
f 42/42/42 45/45/45 44/44/44
f 21/21/21 45/45/45 42/42/42
f 46/46/46 44/44/44 45/45/45
f 45/45/45 47/47/47 46/46/46
f 47/47/47 45/45/45 21/21/21
f 46/46/46 47/47/47 48/48/48
f 21/21/21 48/48/48 47/47/47
f 48/48/48 49/49/49 46/46/46
f 50/50/50 49/49/49 48/48/48
f 48/48/48 51/51/51 50/50/50
f 51/51/51 48/48/48 21/21/21
f 50/50/50 51/51/51 52/52/52
f 21/21/21 52/52/52 51/51/51
f 52/52/52 53/53/53 50/50/50
f 54/54/54 53/53/53 52/52/52
f 52/52/52 55/55/55 54/54/54
f 55/55/55 52/52/52 21/21/21
f 54/54/54 55/55/55 56/56/56
f 56/56/56 55/55/55 21/21/21
f 56/56/56 57/57/57 54/54/54
f 57/57/57 56/56/56 58/58/58
f 58/58/58 56/56/56 21/21/21
f 58/58/58 59/59/59 57/57/57
f 59/59/59 58/58/58 60/60/60
f 58/58/58 21/21/21 60/60/60
f 60/60/60 61/61/61 59/59/59
f 61/61/61 60/60/60 62/62/62
f 62/62/62 60/60/60 21/21/21
f 62/62/62 63/63/63 61/61/61
f 64/64/64 62/62/62 21/21/21
f 63/63/63 62/62/62 64/64/64
f 18/18/18 64/64/64 21/21/21
f 64/64/64 18/18/18 15/15/15
f 15/15/15 65/65/65 64/64/64
f 64/64/64 65/65/65 63/63/63
f 66/36/66 68/37/67 67/38/68
f 69/34/69 68/37/67 66/36/66
f 66/36/66 70/35/70 69/34/69
f 67/38/68 71/39/71 66/36/66
f 71/39/71 67/38/68 72/40/72
f 69/34/69 70/35/70 73/33/73
f 73/33/73 74/32/74 69/34/69
f 72/40/72 75/41/75 71/39/71
f 74/32/74 73/33/73 76/31/76
f 76/31/76 77/30/77 74/32/74
f 66/36/66 71/39/71 78/21/78
f 78/21/78 70/35/70 66/36/66
f 73/33/73 70/35/70 78/21/78
f 78/21/78 76/31/76 73/33/73
f 78/21/78 71/39/71 75/41/75
f 79/42/79 75/41/75 72/40/72
f 72/40/72 80/43/80 79/42/79
f 79/42/79 80/43/80 81/44/81
f 79/42/79 78/21/78 75/41/75
f 77/30/77 76/31/76 82/29/82
f 82/29/82 83/28/83 77/30/77
f 82/29/82 76/31/76 78/21/78
f 81/44/81 84/45/84 79/42/79
f 78/21/78 79/42/79 84/45/84
f 84/45/84 81/44/81 85/46/85
f 85/46/85 86/47/86 84/45/84
f 86/47/86 78/21/78 84/45/84
f 87/48/87 86/47/86 85/46/85
f 85/46/85 88/49/88 87/48/87
f 78/21/78 86/47/86 87/48/87
f 87/48/87 88/49/88 89/50/89
f 89/50/89 90/51/90 87/48/87
f 90/51/90 78/21/78 87/48/87
f 91/52/91 90/51/90 89/50/89
f 89/50/89 92/53/92 91/52/91
f 78/21/78 90/51/90 91/52/91
f 91/52/91 92/53/92 93/54/93
f 93/54/93 94/55/94 91/52/91
f 94/55/94 78/21/78 91/52/91
f 95/56/95 94/55/94 93/54/93
f 95/56/95 78/21/78 94/55/94
f 93/54/93 96/57/96 95/56/95
f 97/58/97 95/56/95 96/57/96
f 97/58/97 78/21/78 95/56/95
f 96/57/96 98/59/98 97/58/97
f 99/60/99 97/58/97 98/59/98
f 97/58/97 99/60/99 78/21/78
f 98/59/98 100/61/100 99/60/99
f 101/62/101 99/60/99 100/61/100
f 101/62/101 78/21/78 99/60/99
f 100/61/100 102/63/102 101/62/101
f 103/64/103 101/62/101 102/63/102
f 103/64/103 78/21/78 101/62/101
f 102/63/102 104/65/104 103/64/103
f 103/64/103 104/65/104 105/15/105
f 105/15/105 106/18/106 103/64/103
f 106/18/106 78/21/78 103/64/103
f 107/14/107 106/18/106 105/15/105
f 107/14/107 78/21/78 106/18/106
f 105/15/105 108/12/108 107/14/107
f 109/11/109 107/14/107 108/12/108
f 109/11/109 78/21/78 107/14/107
f 108/12/108 110/8/110 109/11/109
f 111/7/111 109/11/109 110/8/110
f 78/21/78 109/11/109 111/7/111
f 110/8/110 112/4/112 111/7/111
f 113/3/113 111/7/111 112/4/112
f 113/3/113 78/21/78 111/7/111
f 112/4/112 114/2/114 113/3/113
f 113/3/113 114/2/114 115/1/115
f 115/1/115 116/5/116 113/3/113
f 116/5/116 78/21/78 113/3/113
f 116/5/116 115/1/115 117/6/117
f 117/6/117 118/9/118 116/5/116
f 116/5/116 118/9/118 78/21/78
f 118/9/118 117/6/117 119/10/119
f 119/10/119 120/13/120 118/9/118
f 120/13/120 78/21/78 118/9/118
f 121/16/121 120/13/120 119/10/119
f 120/13/120 121/16/121 78/21/78
f 119/10/119 122/17/122 121/16/121
f 123/19/123 121/16/121 122/17/122
f 123/19/123 78/21/78 121/16/121
f 122/17/122 124/20/124 123/19/123
f 125/22/125 123/19/123 124/20/124
f 125/22/125 78/21/78 123/19/123
f 124/20/124 126/23/126 125/22/125
f 125/22/125 126/23/126 127/24/127
f 125/22/125 128/25/128 78/21/78
f 127/24/127 128/25/128 125/22/125
f 129/26/129 128/25/128 127/24/127
f 129/26/129 78/21/78 128/25/128
f 78/21/78 129/26/129 82/29/82
f 83/28/83 82/29/82 129/26/129
f 127/24/127 130/27/130 129/26/129
f 129/26/129 130/27/130 83/28/83
