# Blender 5.2.2 LTS
# www.blender.org
mtllib Flamp.mtl
o headlightL_a_LODS0_lights_smooth_CH1
v 0.662863 -0.064004 1.689371
v 0.665556 -0.061617 1.685299
v 0.666222 -0.063740 1.685269
v 0.666466 -0.065931 1.685299
v 0.663022 -0.065545 1.689371
v 0.662401 -0.062521 1.689386
v 0.664488 -0.059639 1.685321
v 0.662878 -0.067084 1.689379
v 0.666247 -0.068104 1.685291
v 0.661661 -0.061148 1.689401
v 0.662436 -0.068564 1.689386
v 0.665611 -0.070183 1.685314
v 0.655097 -0.065504 1.691486
v 0.660667 -0.059944 1.689431
v 0.663082 -0.057880 1.685351
v 0.661338 -0.056430 1.685397
v 0.661706 -0.069928 1.689409
v 0.664563 -0.072090 1.685344
v 0.659465 -0.058951 1.689461
v 0.659375 -0.055318 1.685442
v 0.658093 -0.058206 1.689492
v 0.656613 -0.057744 1.689529
v 0.657249 -0.054586 1.685479
v 0.655047 -0.054272 1.685555
v 0.655072 -0.057578 1.689567
v 0.653532 -0.057717 1.689612
v 0.652851 -0.054411 1.685592
v 0.650744 -0.054977 1.685668
v 0.652061 -0.058156 1.689650
v 0.650700 -0.058880 1.689687
v 0.648802 -0.055944 1.685720
v 0.649512 -0.059858 1.689717
v 0.647097 -0.057272 1.685765
v 0.648538 -0.061056 1.689740
v 0.645716 -0.058945 1.685803
v 0.647813 -0.062429 1.689762
v 0.644682 -0.060869 1.685841
v 0.647366 -0.063920 1.689777
v 0.644051 -0.062972 1.685841
v 0.643828 -0.065175 1.685886
v 0.647222 -0.065471 1.689777
v 0.647371 -0.067025 1.689777
v 0.644066 -0.067390 1.685871
v 0.647823 -0.068520 1.689770
v 0.644707 -0.069537 1.685856
v 0.648553 -0.069895 1.689747
v 0.645756 -0.071529 1.685833
v 0.649537 -0.071102 1.689725
v 0.647152 -0.073291 1.685803
v 0.648866 -0.074732 1.685758
v 0.650734 -0.072093 1.689695
v 0.650824 -0.075630 1.685592
v 0.652101 -0.072828 1.689657
v 0.652946 -0.076333 1.685555
v 0.653582 -0.073282 1.689619
v 0.655127 -0.073433 1.689582
v 0.655152 -0.076626 1.685494
v 0.656672 -0.073282 1.689537
v 0.657358 -0.076653 1.685539
v 0.658158 -0.072834 1.689499
v 0.659485 -0.076069 1.685464
v 0.661442 -0.075088 1.685434
v 0.659524 -0.072105 1.689461
v 0.660727 -0.071123 1.689431
v 0.663176 -0.073756 1.685389
vn 0.5443 0.1109 0.8315
vn 0.7596 0.1570 0.6312
vn 0.7246 0.2936 0.6235
vn 0.7657 0.0043 0.6432
vn 0.5488 0.0055 0.8359
vn 0.5186 0.2119 0.8283
vn 0.6615 0.4262 0.6171
vn 0.5355 -0.0988 0.8388
vn 0.7439 -0.1496 0.6513
vn 0.4733 0.3069 0.8257
vn 0.5036 -0.1974 0.8411
vn 0.6975 -0.2872 0.6565
vn 0.0242 0.0008 0.9997
vn 0.4091 0.3890 0.8254
vn 0.5720 0.5436 0.6142
vn 0.4611 0.6435 0.6110
vn 0.4536 -0.2880 0.8434
vn 0.6261 -0.4144 0.6605
vn 0.3285 0.4571 0.8265
vn 0.3321 0.7149 0.6154
vn 0.2349 0.5086 0.8283
vn 0.1358 0.5367 0.8328
vn 0.1986 0.7577 0.6216
vn 0.0420 0.7727 0.6334
vn 0.0260 0.5447 0.8382
vn -0.0774 0.5326 0.8428
vn -0.1081 0.7587 0.6424
vn -0.2540 0.7138 0.6527
vn -0.1824 0.4985 0.8475
vn -0.2756 0.4478 0.8506
vn -0.3873 0.6408 0.6628
vn -0.3576 0.3786 0.8537
vn -0.5085 0.5438 0.6677
vn -0.4259 0.2963 0.8549
vn -0.6107 0.4261 0.6674
vn -0.4773 0.2039 0.8547
vn -0.6876 0.2931 0.6643
vn -0.5101 0.1039 0.8538
vn -0.7365 0.1562 0.6582
vn -0.7562 0.0049 0.6544
vn -0.5225 -0.0022 0.8526
vn -0.5167 -0.1083 0.8493
vn -0.7471 -0.1530 0.6468
vn -0.4892 -0.2108 0.8463
vn -0.7089 -0.2935 0.6414
vn -0.4400 -0.3066 0.8440
vn -0.6411 -0.4268 0.6378
vn -0.3717 -0.3888 0.8430
vn -0.5462 -0.5455 0.6357
vn -0.3873 -0.6707 0.6325
vn -0.2840 -0.4660 0.8380
vn -0.2700 -0.7444 0.6107
vn -0.1974 -0.5210 0.8304
vn -0.1591 -0.7771 0.6089
vn -0.0889 -0.5505 0.8301
vn 0.0189 -0.5568 0.8304
vn -0.0429 -0.7783 0.6264
vn 0.1180 -0.5318 0.8386
vn 0.1060 -0.7500 0.6528
vn 0.2206 -0.4888 0.8441
vn 0.2871 -0.6990 0.6550
vn 0.4132 -0.6272 0.6602
vn 0.3120 -0.4355 0.8444
vn 0.3883 -0.3696 0.8442
vn 0.5274 -0.5299 0.6641
vt 0.763522 0.555283
vt 0.961014 0.576463
vt 0.934426 0.665061
vt 0.968239 0.485504
vt 0.769354 0.501875
vt 0.747377 0.606616
vt 0.891277 0.748077
vt 0.764614 0.448453
vt 0.958615 0.395833
vt 0.721536 0.653955
vt 0.749489 0.397021
vt 0.931367 0.310570
vt 0.493075 0.502276
vt 0.687034 0.695499
vt 0.833274 0.821806
vt 0.760922 0.882913
vt 0.724624 0.349495
vt 0.888088 0.232791
vt 0.645205 0.729602
vt 0.678990 0.929294
vt 0.597689 0.754989
vt 0.546309 0.770674
vt 0.590133 0.959833
vt 0.497686 0.971553
vt 0.493061 0.775983
vt 0.439785 0.772076
vt 0.406259 0.964584
vt 0.319184 0.940313
vt 0.388778 0.756621
vt 0.341793 0.731462
vt 0.238615 0.900329
vt 0.300582 0.697503
vt 0.167686 0.845404
vt 0.266769 0.655945
vt 0.109080 0.776498
vt 0.241661 0.608376
vt 0.064810 0.696744
vt 0.226248 0.556642
vt 0.036427 0.609277
vt 0.026889 0.516930
vt 0.221192 0.502777
vt 0.226722 0.448911
vt 0.034847 0.423596
vt 0.242623 0.397178
vt 0.061162 0.332909
vt 0.268335 0.349681
vt 0.105001 0.248504
vt 0.302866 0.308308
vt 0.164554 0.173773
vt 0.238170 0.112523
vt 0.344895 0.274821
vt 0.319787 0.070021
vt 0.391981 0.249162
vt 0.410597 0.043259
vt 0.443189 0.233335
vt 0.496551 0.227868
vt 0.503532 0.033700
vt 0.550058 0.232920
vt 0.595233 0.040955
vt 0.601596 0.248447
vt 0.682782 0.066844
vt 0.761928 0.109461
vt 0.649170 0.273676
vt 0.690969 0.307593
vt 0.831393 0.165230
s 1
f 1/1/1 3/2/2 2/3/3
f 4/4/4 3/2/2 1/1/1
f 1/1/1 5/5/5 4/4/4
f 2/3/3 6/6/6 1/1/1
f 6/6/6 2/3/3 7/7/7
f 4/4/4 5/5/5 8/8/8
f 8/8/8 9/9/9 4/4/4
f 7/7/7 10/10/10 6/6/6
f 9/9/9 8/8/8 11/11/11
f 11/11/11 12/12/12 9/9/9
f 1/1/1 6/6/6 13/13/13
f 13/13/13 5/5/5 1/1/1
f 8/8/8 5/5/5 13/13/13
f 13/13/13 11/11/11 8/8/8
f 13/13/13 6/6/6 10/10/10
f 14/14/14 10/10/10 7/7/7
f 7/7/7 15/15/15 14/14/14
f 14/14/14 15/15/15 16/16/16
f 14/14/14 13/13/13 10/10/10
f 12/12/12 11/11/11 17/17/17
f 17/17/17 18/18/18 12/12/12
f 17/17/17 11/11/11 13/13/13
f 16/16/16 19/19/19 14/14/14
f 13/13/13 14/14/14 19/19/19
f 19/19/19 16/16/16 20/20/20
f 20/20/20 21/21/21 19/19/19
f 21/21/21 13/13/13 19/19/19
f 22/22/22 21/21/21 20/20/20
f 20/20/20 23/23/23 22/22/22
f 13/13/13 21/21/21 22/22/22
f 22/22/22 23/23/23 24/24/24
f 24/24/24 25/25/25 22/22/22
f 25/25/25 13/13/13 22/22/22
f 26/26/26 25/25/25 24/24/24
f 24/24/24 27/27/27 26/26/26
f 13/13/13 25/25/25 26/26/26
f 26/26/26 27/27/27 28/28/28
f 28/28/28 29/29/29 26/26/26
f 29/29/29 13/13/13 26/26/26
f 30/30/30 29/29/29 28/28/28
f 28/28/28 31/31/31 30/30/30
f 30/30/30 13/13/13 29/29/29
f 32/32/32 30/30/30 31/31/31
f 31/31/31 33/33/33 32/32/32
f 32/32/32 13/13/13 30/30/30
f 34/34/34 32/32/32 33/33/33
f 33/33/33 35/35/35 34/34/34
f 32/32/32 34/34/34 13/13/13
f 36/36/36 34/34/34 35/35/35
f 35/35/35 37/37/37 36/36/36
f 36/36/36 13/13/13 34/34/34
f 38/38/38 36/36/36 37/37/37
f 37/37/37 39/39/39 38/38/38
f 38/38/38 13/13/13 36/36/36
f 38/38/38 39/39/39 40/40/40
f 40/40/40 41/41/41 38/38/38
f 41/41/41 13/13/13 38/38/38
f 42/42/42 41/41/41 40/40/40
f 40/40/40 43/43/43 42/42/42
f 42/42/42 13/13/13 41/41/41
f 44/44/44 42/42/42 43/43/43
f 43/43/43 45/45/45 44/44/44
f 44/44/44 13/13/13 42/42/42
f 46/46/46 44/44/44 45/45/45
f 45/45/45 47/47/47 46/46/46
f 13/13/13 44/44/44 46/46/46
f 48/48/48 46/46/46 47/47/47
f 47/47/47 49/49/49 48/48/48
f 48/48/48 13/13/13 46/46/46
f 48/48/48 49/49/49 50/50/50
f 50/50/50 51/51/51 48/48/48
f 51/51/51 50/50/50 52/52/52
f 51/51/51 13/13/13 48/48/48
f 52/52/52 53/53/53 51/51/51
f 51/51/51 53/53/53 13/13/13
f 53/53/53 52/52/52 54/54/54
f 54/54/54 55/55/55 53/53/53
f 55/55/55 13/13/13 53/53/53
f 56/56/56 55/55/55 54/54/54
f 55/55/55 56/56/56 13/13/13
f 54/54/54 57/57/57 56/56/56
f 58/58/58 56/56/56 57/57/57
f 58/58/58 13/13/13 56/56/56
f 57/57/57 59/59/59 58/58/58
f 60/60/60 58/58/58 59/59/59
f 59/59/59 61/61/61 60/60/60
f 60/60/60 13/13/13 58/58/58
f 60/60/60 61/61/61 62/62/62
f 62/62/62 63/63/63 60/60/60
f 60/60/60 63/63/63 13/13/13
f 64/64/64 63/63/63 62/62/62
f 62/62/62 65/65/65 64/64/64
f 64/64/64 13/13/13 63/63/63
f 64/64/64 65/65/65 18/18/18
f 18/18/18 17/17/17 64/64/64
f 13/13/13 64/64/64 17/17/17
o headlightR_a_LODS0_lights_smooth_CH1
v -0.658158 -0.072834 1.689499
v -0.657358 -0.076653 1.685539
v -0.659485 -0.076069 1.685464
v -0.661442 -0.075088 1.685434
v -0.659524 -0.072105 1.689461
v -0.656672 -0.073282 1.689537
v -0.655152 -0.076626 1.685494
v -0.660727 -0.071123 1.689431
v -0.663176 -0.073756 1.685389
v -0.664563 -0.072090 1.685344
v -0.661706 -0.069928 1.689409
v -0.665611 -0.070183 1.685314
v -0.662436 -0.068564 1.689386
v -0.666247 -0.068104 1.685291
v -0.662878 -0.067084 1.689379
v -0.666466 -0.065931 1.685299
v -0.655097 -0.065504 1.691486
v -0.663022 -0.065545 1.689371
v -0.662863 -0.064004 1.689371
v -0.666222 -0.063740 1.685269
v -0.665556 -0.061617 1.685299
v -0.662401 -0.062521 1.689386
v -0.664488 -0.059639 1.685321
v -0.661661 -0.061148 1.689401
v -0.660667 -0.059944 1.689431
v -0.663082 -0.057880 1.685351
v -0.661338 -0.056430 1.685397
v -0.659465 -0.058951 1.689461
v -0.659375 -0.055318 1.685442
v -0.658093 -0.058206 1.689492
v -0.656613 -0.057744 1.689529
v -0.657249 -0.054586 1.685479
v -0.655047 -0.054272 1.685555
v -0.655072 -0.057578 1.689567
v -0.653532 -0.057717 1.689612
v -0.652851 -0.054411 1.685592
v -0.650744 -0.054977 1.685668
v -0.652061 -0.058156 1.689650
v -0.650700 -0.058880 1.689687
v -0.648802 -0.055944 1.685720
v -0.649512 -0.059858 1.689717
v -0.647097 -0.057275 1.685765
v -0.648538 -0.061059 1.689740
v -0.645716 -0.058945 1.685803
v -0.647813 -0.062429 1.689762
v -0.644682 -0.060869 1.685841
v -0.647366 -0.063920 1.689777
v -0.644051 -0.062975 1.685841
v -0.643828 -0.065175 1.685886
v -0.647217 -0.065471 1.689777
v -0.647371 -0.067025 1.689777
v -0.644066 -0.067390 1.685871
v -0.647823 -0.068520 1.689770
v -0.644707 -0.069537 1.685856
v -0.648553 -0.069895 1.689747
v -0.645756 -0.071529 1.685833
v -0.649537 -0.071102 1.689725
v -0.647152 -0.073291 1.685803
v -0.648866 -0.074732 1.685758
v -0.650734 -0.072093 1.689695
v -0.650824 -0.075630 1.685592
v -0.652101 -0.072828 1.689657
v -0.652946 -0.076333 1.685555
v -0.653582 -0.073282 1.689619
v -0.655127 -0.073433 1.689582
vn -0.2201 -0.4889 0.8441
vn -0.2871 -0.6990 0.6550
vn -0.1060 -0.7500 0.6528
vn -0.4129 -0.6273 0.6603
vn -0.3120 -0.4353 0.8445
vn -0.1179 -0.5318 0.8386
vn 0.0429 -0.7783 0.6264
vn -0.3883 -0.3696 0.8442
vn -0.5275 -0.5299 0.6641
vn -0.6260 -0.4145 0.6606
vn -0.4536 -0.2880 0.8434
vn -0.6975 -0.2871 0.6565
vn -0.5038 -0.1975 0.8409
vn -0.7444 -0.1499 0.6507
vn -0.5355 -0.0988 0.8388
vn -0.7657 0.0043 0.6432
vn -0.0242 0.0008 0.9997
vn -0.5488 0.0055 0.8359
vn -0.5447 0.1109 0.8313
vn -0.7596 0.1570 0.6312
vn -0.7245 0.2936 0.6236
vn -0.5189 0.2119 0.8281
vn -0.6615 0.4262 0.6171
vn -0.4732 0.3069 0.8257
vn -0.4091 0.3890 0.8254
vn -0.5721 0.5437 0.6141
vn -0.4611 0.6435 0.6110
vn -0.3288 0.4570 0.8265
vn -0.3321 0.7149 0.6154
vn -0.2349 0.5086 0.8283
vn -0.1359 0.5367 0.8328
vn -0.1986 0.7577 0.6216
vn -0.0420 0.7727 0.6334
vn -0.0259 0.5447 0.8383
vn 0.0775 0.5326 0.8428
vn 0.1081 0.7587 0.6424
vn 0.2540 0.7138 0.6527
vn 0.1824 0.4985 0.8475
vn 0.2756 0.4478 0.8506
vn 0.3876 0.6407 0.6628
vn 0.3575 0.3787 0.8537
vn 0.5086 0.5436 0.6677
vn 0.4261 0.2962 0.8548
vn 0.6108 0.4261 0.6674
vn 0.4774 0.2038 0.8547
vn 0.6874 0.2934 0.6644
vn 0.5101 0.1034 0.8539
vn 0.7364 0.1563 0.6582
vn 0.7563 0.0050 0.6543
vn 0.5225 -0.0017 0.8526
vn 0.5167 -0.1083 0.8493
vn 0.7471 -0.1530 0.6468
vn 0.4892 -0.2107 0.8463
vn 0.7089 -0.2935 0.6414
vn 0.4400 -0.3065 0.8440
vn 0.6411 -0.4269 0.6377
vn 0.3717 -0.3888 0.8430
vn 0.5462 -0.5455 0.6357
vn 0.3873 -0.6707 0.6325
vn 0.2840 -0.4660 0.8380
vn 0.2700 -0.7444 0.6107
vn 0.1974 -0.5210 0.8304
vn 0.1591 -0.7771 0.6089
vn 0.0888 -0.5505 0.8301
vn -0.0187 -0.5569 0.8303
vt 0.601596 0.248447
vt 0.682782 0.066844
vt 0.595233 0.040955
vt 0.761928 0.109461
vt 0.649170 0.273676
vt 0.550058 0.232920
vt 0.503532 0.033700
vt 0.690969 0.307593
vt 0.831393 0.165230
vt 0.888088 0.232791
vt 0.724624 0.349495
vt 0.931367 0.310570
vt 0.749489 0.397021
vt 0.958615 0.395833
vt 0.764614 0.448453
vt 0.968239 0.485504
vt 0.493075 0.502276
vt 0.769354 0.501875
vt 0.763522 0.555283
vt 0.961014 0.576463
vt 0.934426 0.665061
vt 0.747377 0.606616
vt 0.891277 0.748077
vt 0.721536 0.653955
vt 0.687034 0.695499
vt 0.833274 0.821806
vt 0.760922 0.882913
vt 0.645205 0.729602
vt 0.678990 0.929294
vt 0.597689 0.754989
vt 0.546309 0.770674
vt 0.590133 0.959833
vt 0.497686 0.971553
vt 0.493061 0.775983
vt 0.439785 0.772076
vt 0.406259 0.964584
vt 0.319184 0.940313
vt 0.388778 0.756621
vt 0.341793 0.731462
vt 0.238615 0.900329
vt 0.300582 0.697503
vt 0.167686 0.845404
vt 0.266769 0.655945
vt 0.109080 0.776498
vt 0.241661 0.608376
vt 0.064810 0.696744
vt 0.226248 0.556642
vt 0.036427 0.609277
vt 0.026889 0.516930
vt 0.221192 0.502777
vt 0.226722 0.448911
vt 0.034847 0.423596
vt 0.242623 0.397178
vt 0.061162 0.332909
vt 0.268335 0.349681
vt 0.105001 0.248504
vt 0.302866 0.308308
vt 0.164554 0.173773
vt 0.238170 0.112523
vt 0.344895 0.274821
vt 0.319787 0.070021
vt 0.391981 0.249162
vt 0.410597 0.043259
vt 0.443189 0.233335
vt 0.496551 0.227868
s 1
f 66/66/66 68/67/67 67/68/68
f 69/69/69 68/67/67 66/66/66
f 66/66/66 70/70/70 69/69/69
f 67/68/68 71/71/71 66/66/66
f 71/71/71 67/68/68 72/72/72
f 69/69/69 70/70/70 73/73/73
f 73/73/73 74/74/74 69/69/69
f 75/75/75 74/74/74 73/73/73
f 73/73/73 76/76/76 75/75/75
f 77/77/77 75/75/75 76/76/76
f 76/76/76 78/78/78 77/77/77
f 79/79/79 77/77/77 78/78/78
f 78/78/78 80/80/80 79/79/79
f 81/81/81 79/79/79 80/80/80
f 76/76/76 82/82/82 78/78/78
f 82/82/82 76/76/76 73/73/73
f 82/82/82 80/80/80 78/78/78
f 73/73/73 70/70/70 82/82/82
f 66/66/66 82/82/82 70/70/70
f 66/66/66 71/71/71 82/82/82
f 80/80/80 83/83/83 81/81/81
f 80/80/80 82/82/82 83/83/83
f 81/81/81 83/83/83 84/84/84
f 84/84/84 85/85/85 81/81/81
f 86/86/86 85/85/85 84/84/84
f 82/82/82 84/84/84 83/83/83
f 84/84/84 87/87/87 86/86/86
f 84/84/84 82/82/82 87/87/87
f 88/88/88 86/86/86 87/87/87
f 87/87/87 89/89/89 88/88/88
f 82/82/82 89/89/89 87/87/87
f 88/88/88 89/89/89 90/90/90
f 90/90/90 91/91/91 88/88/88
f 92/92/92 91/91/91 90/90/90
f 90/90/90 89/89/89 82/82/82
f 90/90/90 93/93/93 92/92/92
f 82/82/82 93/93/93 90/90/90
f 94/94/94 92/92/92 93/93/93
f 93/93/93 95/95/95 94/94/94
f 95/95/95 93/93/93 82/82/82
f 94/94/94 95/95/95 96/96/96
f 96/96/96 97/97/97 94/94/94
f 82/82/82 96/96/96 95/95/95
f 98/98/98 97/97/97 96/96/96
f 96/96/96 99/99/99 98/98/98
f 99/99/99 96/96/96 82/82/82
f 98/98/98 99/99/99 100/100/100
f 100/100/100 101/101/101 98/98/98
f 82/82/82 100/100/100 99/99/99
f 102/102/102 101/101/101 100/100/100
f 100/100/100 103/103/103 102/102/102
f 103/103/103 100/100/100 82/82/82
f 102/102/102 103/103/103 104/104/104
f 104/104/104 103/103/103 82/82/82
f 104/104/104 105/105/105 102/102/102
f 105/105/105 104/104/104 106/106/106
f 106/106/106 107/107/107 105/105/105
f 106/106/106 104/104/104 82/82/82
f 107/107/107 106/106/106 108/108/108
f 106/106/106 82/82/82 108/108/108
f 108/108/108 109/109/109 107/107/107
f 109/109/109 108/108/108 110/110/110
f 110/110/110 108/108/108 82/82/82
f 110/110/110 111/111/111 109/109/109
f 111/111/111 110/110/110 112/112/112
f 112/112/112 113/113/113 111/111/111
f 112/112/112 110/110/110 82/82/82
f 114/114/114 113/113/113 112/112/112
f 112/112/112 115/115/115 114/114/114
f 115/115/115 112/112/112 82/82/82
f 114/114/114 115/115/115 116/116/116
f 116/116/116 115/115/115 82/82/82
f 116/116/116 117/117/117 114/114/114
f 117/117/117 116/116/116 118/118/118
f 118/118/118 116/116/116 82/82/82
f 118/118/118 119/119/119 117/117/117
f 119/119/119 118/118/118 120/120/120
f 82/82/82 120/120/120 118/118/118
f 120/120/120 121/121/121 119/119/119
f 121/121/121 120/120/120 122/122/122
f 122/122/122 120/120/120 82/82/82
f 122/122/122 123/123/123 121/121/121
f 124/124/124 123/123/123 122/122/122
f 122/122/122 125/125/125 124/124/124
f 125/125/125 122/122/122 82/82/82
f 126/126/126 124/124/124 125/125/125
f 125/125/125 127/127/127 126/126/126
f 125/125/125 82/82/82 127/127/127
f 128/128/128 126/126/126 127/127/127
f 127/127/127 129/129/129 128/128/128
f 129/129/129 127/127/127 82/82/82
f 128/128/128 129/129/129 130/130/130
f 130/130/130 72/72/72 128/128/128
f 129/129/129 82/82/82 130/130/130
f 72/72/72 130/130/130 71/71/71
f 71/71/71 130/130/130 82/82/82
