# Blender 5.2.2 LTS
# www.blender.org
mtllib RDRL.mtl
o taillightR_a_LODS0_metal_satin
v -0.490718 0.124697 -1.916996
v -0.489422 0.122424 -1.918235
v -0.490083 0.124511 -1.917439
v -0.487234 0.115554 -1.920794
v -0.486605 0.113555 -1.921516
v -0.487983 0.110729 -1.921182
v -0.487212 0.111929 -1.921427
v -0.491604 0.109700 -1.919236
v -0.489350 0.109794 -1.920536
v -0.491877 0.124694 -1.916261
v -0.493015 0.124776 -1.915520
v -0.494924 0.124812 -1.914294
v -0.528170 0.108969 -1.898014
v -0.531982 0.125577 -1.890392
v -0.566219 0.108812 -1.875704
v -0.566323 0.125742 -1.869252
v -0.602993 0.108563 -1.854115
v -0.601790 0.125876 -1.847329
v -0.636628 0.108372 -1.834098
v -0.637274 0.125457 -1.824216
v -0.639461 0.108354 -1.832417
v -0.672232 0.124218 -1.800320
v -0.692556 0.112589 -1.790839
v -0.703494 0.122222 -1.778112
v -0.706278 0.122044 -1.776131
v -0.710029 0.119901 -1.773831
v -0.708318 0.121332 -1.774688
v -0.710609 0.110860 -1.778241
v -0.710844 0.118244 -1.774035
v -0.709969 0.099684 -1.784380
v -0.691281 0.101086 -1.797407
v -0.638444 0.105051 -1.834248
v -0.708766 0.087293 -1.791397
v -0.689695 0.089053 -1.804050
v -0.706529 0.075196 -1.798659
v -0.688224 0.080038 -1.809324
v -0.703773 0.064009 -1.806010
v -0.686036 0.071070 -1.815021
v -0.683269 0.062941 -1.820636
v -0.700606 0.054863 -1.812639
v -0.680540 0.056828 -1.825380
v -0.697281 0.047616 -1.818356
v -0.677576 0.052040 -1.829593
v -0.693152 0.040937 -1.824223
v -0.673348 0.046616 -1.834738
v -0.689165 0.036100 -1.828994
v -0.683160 0.030518 -1.835262
v -0.668661 0.042250 -1.839598
v -0.676629 0.026034 -1.841259
v -0.662858 0.037910 -1.845050
v -0.668705 0.021896 -1.847956
v -0.655852 0.034031 -1.851039
v -0.659921 0.018329 -1.854973
v -0.648075 0.030778 -1.857260
v -0.649508 0.014945 -1.862943
v -0.638882 0.027860 -1.864181
v -0.637646 0.011936 -1.871477
v -0.628627 0.025044 -1.871559
v -0.623141 0.009131 -1.881135
v -0.616147 0.022116 -1.879944
v -0.598000 0.005660 -1.896190
v -0.593537 0.018392 -1.893461
v -0.567717 0.015791 -1.907311
v -0.568855 0.002942 -1.911974
v -0.533765 0.013279 -1.924238
v -0.535318 0.000569 -1.928900
v -0.498369 0.010844 -1.941274
v -0.499829 -0.001548 -1.945888
v -0.464050 0.008651 -1.957363
v -0.465079 -0.002834 -1.961427
v -0.423655 0.005893 -1.974610
v -0.423781 -0.006105 -1.978476
v -0.436967 -0.005104 -1.973099
v -0.419838 -0.005411 -1.979762
v -0.420429 -0.001933 -1.978428
v -0.420177 -0.006343 -1.979926
vn -0.5297 0.1519 -0.8345
vn -0.5321 0.1491 -0.8334
vn -0.5544 0.1302 -0.8220
vn -0.6334 0.0780 -0.7699
vn -0.5076 0.1508 -0.8483
vn -0.4945 0.1397 -0.8579
vn -0.4992 0.1430 -0.8546
vn -0.5042 0.1586 -0.8489
vn -0.5002 0.1480 -0.8532
vn -0.5313 0.1555 -0.8328
vn -0.5316 0.1555 -0.8326
vn -0.5140 0.1758 -0.8396
vn -0.5056 0.2495 -0.8259
vn -0.5015 0.2692 -0.8222
vn -0.4900 0.3024 -0.8176
vn -0.4909 0.3133 -0.8129
vn -0.4857 0.3428 -0.8041
vn -0.4889 0.3590 -0.7950
vn -0.4820 0.4140 -0.7722
vn -0.5094 0.4217 -0.7501
vn -0.5244 0.3596 -0.7718
vn -0.5520 0.3702 -0.7472
vn -0.5546 0.3638 -0.7484
vn -0.5557 0.3594 -0.7497
vn -0.5852 0.3598 -0.7267
vn -0.6240 0.3694 -0.6886
vn -0.6206 0.3121 -0.7194
vn -0.5671 0.3682 -0.7367
vn -0.6000 0.3815 -0.7032
vn -0.5516 0.3722 -0.7465
vn -0.5499 0.3616 -0.7529
vn -0.5653 0.2605 -0.7827
vn -0.5435 0.3621 -0.7573
vn -0.5393 0.3553 -0.7635
vn -0.5389 0.3614 -0.7609
vn -0.5365 0.3594 -0.7636
vn -0.5326 0.3643 -0.7640
vn -0.5318 0.3542 -0.7692
vn -0.5268 0.3611 -0.7694
vn -0.5253 0.3692 -0.7667
vn -0.5230 0.3608 -0.7722
vn -0.5231 0.3625 -0.7713
vn -0.5183 0.3499 -0.7803
vn -0.5191 0.3526 -0.7786
vn -0.5119 0.3396 -0.7890
vn -0.5139 0.3435 -0.7861
vn -0.5087 0.3343 -0.7934
vn -0.5062 0.3322 -0.7959
vn -0.5045 0.3295 -0.7981
vn -0.5030 0.3289 -0.7992
vn -0.5032 0.3294 -0.7989
vn -0.5021 0.3297 -0.7995
vn -0.5029 0.3310 -0.7985
vn -0.5004 0.3316 -0.7998
vn -0.4986 0.3313 -0.8010
vn -0.4934 0.3301 -0.8047
vn -0.4874 0.3284 -0.8090
vn -0.4823 0.3265 -0.8129
vn -0.4665 0.3244 -0.8229
vn -0.4605 0.3232 -0.8267
vn -0.4344 0.3310 -0.8377
vn -0.4282 0.3296 -0.8414
vn -0.4069 0.3440 -0.8462
vn -0.4096 0.3447 -0.8446
vn -0.3908 0.3582 -0.8479
vn -0.3920 0.3589 -0.8471
vn -0.3841 0.3587 -0.8508
vn -0.3803 0.3594 -0.8522
vn -0.3699 0.3354 -0.8664
vn -0.3603 0.3357 -0.8703
vn -0.3505 0.2948 -0.8890
vn -0.3436 0.2915 -0.8927
vn -0.1562 0.8288 -0.5373
vn -0.3446 0.2861 -0.8941
vn -0.3858 0.2713 -0.8818
vn -0.3420 0.2833 -0.8960
vt 0.718088 0.639911
vt 0.719507 0.639554
vt 0.721272 0.635665
vt 0.727032 0.622884
vt 0.729512 0.617211
vt 0.728332 0.613938
vt 0.726729 0.611530
vt 0.718500 0.609534
vt 0.723708 0.609671
vt 0.715349 0.639957
vt 0.712620 0.640165
vt 0.708094 0.640311
vt 0.633931 0.608922
vt 0.619940 0.643542
vt 0.545701 0.609388
vt 0.539291 0.645052
vt 0.460418 0.609629
vt 0.455902 0.646632
vt 0.382118 0.610053
vt 0.371203 0.648022
vt 0.375534 0.610078
vt 0.286482 0.648733
vt 0.241328 0.626049
vt 0.209677 0.648321
vt 0.202834 0.648288
vt 0.193814 0.644466
vt 0.197755 0.647182
vt 0.197181 0.624598
vt 0.192579 0.640960
vt 0.204295 0.600072
vt 0.249937 0.600866
vt 0.379000 0.603066
vt 0.213229 0.572925
vt 0.259108 0.574760
vt 0.224165 0.546520
vt 0.266775 0.555104
vt 0.236131 0.521944
vt 0.276098 0.535519
vt 0.286363 0.517755
vt 0.248118 0.501780
vt 0.295741 0.504288
vt 0.259477 0.485785
vt 0.305010 0.493708
vt 0.272384 0.471037
vt 0.317365 0.481792
vt 0.283981 0.460369
vt 0.300527 0.448049
vt 0.330250 0.472180
vt 0.317733 0.438134
vt 0.345659 0.462623
vt 0.338068 0.428893
vt 0.363688 0.453993
vt 0.360223 0.420812
vt 0.383298 0.446656
vt 0.386146 0.413034
vt 0.406070 0.439989
vt 0.415155 0.406084
vt 0.431138 0.433584
vt 0.449838 0.399692
vt 0.461046 0.427063
vt 0.508344 0.392197
vt 0.513639 0.419194
vt 0.572231 0.414240
vt 0.574591 0.386932
vt 0.648105 0.410198
vt 0.649718 0.383010
vt 0.726686 0.406721
vt 0.728408 0.380190
vt 0.802517 0.403917
vt 0.804531 0.379574
vt 0.890443 0.401276
vt 0.894005 0.376339
vt 0.849241 0.377175
vt 0.902213 0.378131
vt 0.899863 0.385289
vt 0.901769 0.376168
s 1
f 1/1/1 3/2/2 2/3/3
f 1/1/1 2/3/3 4/4/4
f 1/1/1 4/4/4 5/5/5
f 5/5/5 7/6/6 6/7/7
f 8/8/8 1/1/1 5/5/5
f 8/8/8 5/5/5 6/7/7
f 8/8/8 6/7/7 9/9/9
f 8/8/8 10/10/10 1/1/1
f 8/8/8 11/11/11 10/10/10
f 8/8/8 12/12/12 11/11/11
f 12/12/12 8/8/8 13/13/13
f 13/13/13 14/14/14 12/12/12
f 14/14/14 13/13/13 15/15/15
f 15/15/15 16/16/16 14/14/14
f 16/16/16 15/15/15 17/17/17
f 17/17/17 18/18/18 16/16/16
f 18/18/18 17/17/17 19/19/19
f 19/19/19 20/20/20 18/18/18
f 20/20/20 19/19/19 21/21/21
f 22/22/22 20/20/20 21/21/21
f 21/21/21 23/23/23 22/22/22
f 23/23/23 24/24/24 22/22/22
f 25/25/25 24/24/24 23/23/23
f 26/26/26 27/27/27 25/25/25
f 26/26/26 25/25/25 28/28/28
f 26/26/26 28/28/28 29/29/29
f 25/25/25 23/23/23 28/28/28
f 30/30/30 28/28/28 23/23/23
f 23/23/23 31/31/31 30/30/30
f 31/31/31 23/23/23 21/21/21
f 21/21/21 32/32/32 31/31/31
f 33/33/33 30/30/30 31/31/31
f 31/31/31 34/34/34 33/33/33
f 35/35/35 33/33/33 34/34/34
f 34/34/34 36/36/36 35/35/35
f 37/37/37 35/35/35 36/36/36
f 36/36/36 38/38/38 37/37/37
f 37/37/37 38/38/38 39/39/39
f 39/39/39 40/40/40 37/37/37
f 40/40/40 39/39/39 41/41/41
f 41/41/41 42/42/42 40/40/40
f 42/42/42 41/41/41 43/43/43
f 43/43/43 44/44/44 42/42/42
f 44/44/44 43/43/43 45/45/45
f 45/45/45 46/46/46 44/44/44
f 47/47/47 46/46/46 45/45/45
f 45/45/45 48/48/48 47/47/47
f 49/49/49 47/47/47 48/48/48
f 48/48/48 50/50/50 49/49/49
f 51/51/51 49/49/49 50/50/50
f 50/50/50 52/52/52 51/51/51
f 53/53/53 51/51/51 52/52/52
f 52/52/52 54/54/54 53/53/53
f 55/55/55 53/53/53 54/54/54
f 54/54/54 56/56/56 55/55/55
f 57/57/57 55/55/55 56/56/56
f 56/56/56 58/58/58 57/57/57
f 59/59/59 57/57/57 58/58/58
f 58/58/58 60/60/60 59/59/59
f 61/61/61 59/59/59 60/60/60
f 60/60/60 62/62/62 61/61/61
f 61/61/61 62/62/62 63/63/63
f 63/63/63 64/64/64 61/61/61
f 64/64/64 63/63/63 65/65/65
f 65/65/65 66/66/66 64/64/64
f 66/66/66 65/65/65 67/67/67
f 67/67/67 68/68/68 66/66/66
f 68/68/68 67/67/67 69/69/69
f 69/69/69 70/70/70 68/68/68
f 70/70/70 69/69/69 71/71/71
f 72/72/72 70/70/70 71/71/71
f 72/72/72 73/73/73 70/70/70
f 72/72/72 71/71/71 74/74/74
f 71/71/71 75/75/75 74/74/74
f 72/72/72 74/74/74 76/76/76
o taillightL_a_LODS0_metal_satin
v 0.489422 0.122424 -1.918239
v 0.490718 0.124697 -1.916998
v 0.490083 0.124511 -1.917441
v 0.487234 0.115554 -1.920789
v 0.486605 0.113555 -1.921511
v 0.491604 0.109697 -1.919234
v 0.491877 0.124695 -1.916262
v 0.493015 0.124776 -1.915519
v 0.494924 0.124810 -1.914298
v 0.487983 0.110729 -1.921177
v 0.487212 0.111929 -1.921430
v 0.489350 0.109794 -1.920536
v 0.528170 0.108969 -1.898018
v 0.531982 0.125577 -1.890389
v 0.566219 0.108812 -1.875704
v 0.566323 0.125742 -1.869254
v 0.602993 0.108563 -1.854119
v 0.601790 0.125876 -1.847329
v 0.636628 0.108369 -1.834103
v 0.637274 0.125457 -1.824210
v 0.639461 0.108354 -1.832412
v 0.672232 0.124218 -1.800321
v 0.692555 0.112589 -1.790838
v 0.703494 0.122222 -1.778116
v 0.706277 0.122044 -1.776132
v 0.691281 0.101086 -1.797403
v 0.638444 0.105051 -1.834246
v 0.709969 0.099684 -1.784375
v 0.710609 0.110860 -1.778239
v 0.708766 0.087293 -1.791397
v 0.689695 0.089053 -1.804050
v 0.706529 0.075195 -1.798664
v 0.688224 0.080036 -1.809327
v 0.703773 0.064009 -1.806014
v 0.686036 0.071070 -1.815020
v 0.683269 0.062941 -1.820631
v 0.700606 0.054863 -1.812634
v 0.710029 0.119901 -1.773828
v 0.708318 0.121332 -1.774687
v 0.710844 0.118241 -1.774032
v 0.680540 0.056827 -1.825376
v 0.697281 0.047616 -1.818354
v 0.677576 0.052040 -1.829596
v 0.693152 0.040937 -1.824217
v 0.673348 0.046615 -1.834737
v 0.689165 0.036100 -1.828996
v 0.683160 0.030518 -1.835261
v 0.668661 0.042249 -1.839597
v 0.676629 0.026034 -1.841254
v 0.662858 0.037910 -1.845045
v 0.668705 0.021896 -1.847956
v 0.655858 0.034031 -1.851044
v 0.659921 0.018329 -1.854971
v 0.648075 0.030778 -1.857255
v 0.649508 0.014945 -1.862941
v 0.638882 0.027860 -1.864182
v 0.637646 0.011936 -1.871477
v 0.628627 0.025044 -1.871559
v 0.623141 0.009130 -1.881137
v 0.616146 0.022116 -1.879944
v 0.598000 0.005660 -1.896191
v 0.593537 0.018392 -1.893464
v 0.567717 0.015791 -1.907310
v 0.568855 0.002941 -1.911973
v 0.533765 0.013279 -1.924238
v 0.535318 0.000569 -1.928902
v 0.498369 0.010843 -1.941276
v 0.499829 -0.001548 -1.945884
v 0.464050 0.008649 -1.957365
v 0.465079 -0.002834 -1.961422
v 0.423655 0.005893 -1.974614
v 0.423781 -0.006105 -1.978473
v 0.436967 -0.005105 -1.973093
v 0.419838 -0.005411 -1.979761
v 0.420177 -0.006343 -1.979925
v 0.420429 -0.001933 -1.978432
vn 0.5544 0.1302 -0.8220
vn 0.5321 0.1491 -0.8334
vn 0.5297 0.1522 -0.8344
vn 0.6334 0.0780 -0.7699
vn 0.5080 0.1513 -0.8480
vn 0.5042 0.1591 -0.8488
vn 0.5313 0.1554 -0.8328
vn 0.5311 0.1555 -0.8329
vn 0.5135 0.1758 -0.8399
vn 0.4991 0.1430 -0.8547
vn 0.4945 0.1397 -0.8579
vn 0.5002 0.1480 -0.8532
vn 0.5056 0.2497 -0.8258
vn 0.5015 0.2694 -0.8221
vn 0.4900 0.3024 -0.8176
vn 0.4909 0.3132 -0.8130
vn 0.4857 0.3429 -0.8040
vn 0.4889 0.3592 -0.7950
vn 0.4823 0.4141 -0.7720
vn 0.5094 0.4218 -0.7500
vn 0.5248 0.3598 -0.7714
vn 0.5520 0.3700 -0.7473
vn 0.5547 0.3635 -0.7484
vn 0.5556 0.3594 -0.7497
vn 0.5854 0.3593 -0.7268
vn 0.5499 0.3616 -0.7529
vn 0.5653 0.2602 -0.7828
vn 0.5516 0.3722 -0.7464
vn 0.5673 0.3681 -0.7367
vn 0.5435 0.3620 -0.7573
vn 0.5393 0.3555 -0.7634
vn 0.5388 0.3615 -0.7609
vn 0.5363 0.3595 -0.7636
vn 0.5327 0.3643 -0.7638
vn 0.5316 0.3541 -0.7694
vn 0.5268 0.3610 -0.7695
vn 0.5252 0.3690 -0.7668
vn 0.6240 0.3692 -0.6887
vn 0.6206 0.3121 -0.7194
vn 0.5998 0.3814 -0.7034
vn 0.5231 0.3613 -0.7719
vn 0.5232 0.3625 -0.7713
vn 0.5185 0.3497 -0.7803
vn 0.5192 0.3526 -0.7785
vn 0.5120 0.3395 -0.7890
vn 0.5139 0.3440 -0.7859
vn 0.5085 0.3342 -0.7935
vn 0.5061 0.3321 -0.7960
vn 0.5044 0.3294 -0.7981
vn 0.5033 0.3290 -0.7990
vn 0.5035 0.3294 -0.7987
vn 0.5022 0.3295 -0.7995
vn 0.5028 0.3307 -0.7986
vn 0.5002 0.3315 -0.7999
vn 0.4986 0.3314 -0.8010
vn 0.4934 0.3301 -0.8047
vn 0.4875 0.3284 -0.8090
vn 0.4823 0.3265 -0.8129
vn 0.4665 0.3245 -0.8228
vn 0.4605 0.3233 -0.8267
vn 0.4344 0.3309 -0.8378
vn 0.4282 0.3296 -0.8414
vn 0.4069 0.3440 -0.8462
vn 0.4096 0.3447 -0.8446
vn 0.3907 0.3582 -0.8479
vn 0.3920 0.3589 -0.8470
vn 0.3840 0.3587 -0.8508
vn 0.3803 0.3591 -0.8523
vn 0.3699 0.3354 -0.8664
vn 0.3604 0.3353 -0.8704
vn 0.3506 0.2947 -0.8889
vn 0.1561 0.8288 -0.5373
vn 0.3439 0.2910 -0.8928
vn 0.3449 0.2864 -0.8939
vn 0.3420 0.2832 -0.8960
vn 0.3858 0.2713 -0.8818
vt 0.721272 0.635665
vt 0.719507 0.639554
vt 0.718088 0.639911
vt 0.727032 0.622884
vt 0.729512 0.617211
vt 0.718500 0.609534
vt 0.715349 0.639957
vt 0.712620 0.640165
vt 0.708094 0.640311
vt 0.726729 0.611530
vt 0.728332 0.613938
vt 0.723708 0.609671
vt 0.633931 0.608922
vt 0.619940 0.643542
vt 0.545701 0.609388
vt 0.539291 0.645052
vt 0.460418 0.609629
vt 0.455902 0.646632
vt 0.382118 0.610053
vt 0.371203 0.648022
vt 0.375534 0.610078
vt 0.286482 0.648733
vt 0.241328 0.626049
vt 0.209677 0.648321
vt 0.202834 0.648288
vt 0.249937 0.600866
vt 0.379000 0.603066
vt 0.204295 0.600072
vt 0.197181 0.624598
vt 0.213229 0.572925
vt 0.259108 0.574760
vt 0.224165 0.546520
vt 0.266775 0.555104
vt 0.236131 0.521944
vt 0.276098 0.535519
vt 0.286363 0.517755
vt 0.248118 0.501780
vt 0.193814 0.644466
vt 0.197755 0.647182
vt 0.192579 0.640960
vt 0.295741 0.504288
vt 0.259477 0.485785
vt 0.305010 0.493708
vt 0.272384 0.471037
vt 0.317365 0.481792
vt 0.283981 0.460369
vt 0.300527 0.448049
vt 0.330250 0.472180
vt 0.317733 0.438134
vt 0.345659 0.462623
vt 0.338068 0.428893
vt 0.363688 0.453993
vt 0.360223 0.420812
vt 0.383298 0.446656
vt 0.386146 0.413034
vt 0.406070 0.439989
vt 0.415155 0.406084
vt 0.431138 0.433584
vt 0.449838 0.399692
vt 0.461046 0.427063
vt 0.508344 0.392197
vt 0.513639 0.419194
vt 0.572231 0.414240
vt 0.574591 0.386932
vt 0.648105 0.410198
vt 0.649718 0.383010
vt 0.726686 0.406721
vt 0.728408 0.380190
vt 0.802517 0.403917
vt 0.804531 0.379574
vt 0.890443 0.401276
vt 0.849241 0.377175
vt 0.894005 0.376339
vt 0.902213 0.378131
vt 0.901769 0.376168
vt 0.899863 0.385289
s 1
f 77/77/77 79/78/78 78/79/79
f 80/80/80 77/77/77 78/79/79
f 81/81/81 80/80/80 78/79/79
f 81/81/81 78/79/79 82/82/82
f 78/79/79 83/83/83 82/82/82
f 83/83/83 84/84/84 82/82/82
f 84/84/84 85/85/85 82/82/82
f 86/86/86 87/87/87 81/81/81
f 86/86/86 81/81/81 82/82/82
f 86/86/86 82/82/82 88/88/88
f 89/89/89 82/82/82 85/85/85
f 85/85/85 90/90/90 89/89/89
f 91/91/91 89/89/89 90/90/90
f 90/90/90 92/92/92 91/91/91
f 93/93/93 91/91/91 92/92/92
f 92/92/92 94/94/94 93/93/93
f 95/95/95 93/93/93 94/94/94
f 94/94/94 96/96/96 95/95/95
f 96/96/96 97/97/97 95/95/95
f 97/97/97 96/96/96 98/98/98
f 98/98/98 99/99/99 97/97/97
f 99/99/99 98/98/98 100/100/100
f 99/99/99 100/100/100 101/101/101
f 102/102/102 103/103/103 97/97/97
f 97/97/97 99/99/99 102/102/102
f 104/104/104 102/102/102 99/99/99
f 99/99/99 105/105/105 104/104/104
f 105/105/105 99/99/99 101/101/101
f 102/102/102 104/104/104 106/106/106
f 106/106/106 107/107/107 102/102/102
f 107/107/107 106/106/106 108/108/108
f 108/108/108 109/109/109 107/107/107
f 109/109/109 108/108/108 110/110/110
f 110/110/110 111/111/111 109/109/109
f 112/112/112 111/111/111 110/110/110
f 110/110/110 113/113/113 112/112/112
f 114/114/114 101/101/101 115/115/115
f 114/114/114 105/105/105 101/101/101
f 114/114/114 116/116/116 105/105/105
f 117/117/117 112/112/112 113/113/113
f 113/113/113 118/118/118 117/117/117
f 119/119/119 117/117/117 118/118/118
f 118/118/118 120/120/120 119/119/119
f 121/121/121 119/119/119 120/120/120
f 120/120/120 122/122/122 121/121/121
f 121/121/121 122/122/122 123/123/123
f 123/123/123 124/124/124 121/121/121
f 124/124/124 123/123/123 125/125/125
f 125/125/125 126/126/126 124/124/124
f 126/126/126 125/125/125 127/127/127
f 127/127/127 128/128/128 126/126/126
f 128/128/128 127/127/127 129/129/129
f 129/129/129 130/130/130 128/128/128
f 130/130/130 129/129/129 131/131/131
f 131/131/131 132/132/132 130/130/130
f 132/132/132 131/131/131 133/133/133
f 133/133/133 134/134/134 132/132/132
f 134/134/134 133/133/133 135/135/135
f 135/135/135 136/136/136 134/134/134
f 136/136/136 135/135/135 137/137/137
f 137/137/137 138/138/138 136/136/136
f 139/139/139 138/138/138 137/137/137
f 137/137/137 140/140/140 139/139/139
f 141/141/141 139/139/139 140/140/140
f 140/140/140 142/142/142 141/141/141
f 143/143/143 141/141/141 142/142/142
f 142/142/142 144/144/144 143/143/143
f 145/145/145 143/143/143 144/144/144
f 144/144/144 146/146/146 145/145/145
f 147/147/147 145/145/145 146/146/146
f 146/146/146 149/148/148 148/149/149
f 147/147/147 146/146/146 148/149/149
f 150/150/150 147/147/147 148/149/149
f 150/150/150 148/149/149 151/151/151
f 150/150/150 152/152/152 147/147/147
